<?xml version="1.0" encoding="UTF-8"?>
<svg width="36px" height="36px" viewBox="0 0 36 36" version="1.1" xmlns="http://www.w3.org/2000/svg" xmlns:xlink="http://www.w3.org/1999/xlink">
    <title>favicon</title>
    <g id="favicon" stroke="none" stroke-width="1" fill="none" fill-rule="evenodd">
        <rect id="Rectangle-Copy" fill="#FF9634" x="0" y="0" width="36" height="36" rx="5"></rect>
        <g id="Group-41" transform="translate(4.000000, 3.000000)" fill="#FFFFFF" fill-rule="nonzero">
            <path d="M13.9223448,3.227712 C19.8192511,3.227712 24.6163448,8.02478793 24.6163448,13.921712 C24.6163448,15.7324319 24.1626889,17.4978044 23.294508,19.0744164 L23.1021387,19.4093204 L22.7679845,19.9453516 L21.9688222,19.4269439 L22.1048832,19.2172059 C23.127741,17.6404707 23.6683448,15.809549 23.6683448,13.921712 C23.6683448,8.54798319 19.2960736,4.175712 13.9223448,4.175712 C8.54861599,4.175712 4.1763448,8.54798319 4.1763448,13.921712 C4.1763448,16.1439115 4.9318094,18.2873175 6.31588757,20.0135179 L6.412,20.13 L6.63551656,20.0123312 C8.4042127,19.110001 10.3353698,18.5438547 12.3190581,18.3444511 L12.7777148,18.304959 L13.2379362,18.2785708 L13.448,18.272 L13.448,14.394 L10.7760004,17.0664018 L10.1056238,16.3961436 L12.777,13.723 L8.9986968,13.723712 L8.9986968,12.775712 L12.777,12.775 L10.1056238,10.1032804 L10.7760004,9.43302223 L13.448,12.105 L13.4483448,6.80124 L14.3963448,6.80124 L14.396,12.105 L17.0687452,9.43302223 L17.7391218,10.1032804 L15.066,12.775 L18.8459928,12.775712 L18.8459928,13.723712 L15.066,13.723 L17.7391218,16.3961436 L17.0687452,17.0664018 L14.396,14.394 L14.396,18.272 L14.6211216,18.2791584 C16.6607942,18.3681696 18.6675294,18.8457852 20.5223638,19.6822079 L20.9476519,19.8815843 L21.3672222,20.093618 L21.7767507,20.3161053 C23.1071662,21.0646152 24.3246896,21.9992736 25.3929637,23.0912683 L25.7434775,23.4610544 L26.2152811,23.9898161 L25.496201,24.6131141 L25.3324541,24.4242042 C24.3916525,23.3388298 23.3005616,22.3922647 22.0968408,21.6156791 L21.6914808,21.3631555 L21.3152601,21.144169 L20.9126824,20.9256819 C18.7648007,19.802274 16.3575623,19.211712 13.9223448,19.211712 C11.5747481,19.211712 9.2537513,19.7607447 7.16614041,20.8061483 L7.073,20.854 L7.10149974,20.8821593 C8.24970824,22.0107051 9.63619157,22.8252116 11.1697616,23.2738643 L11.5262319,23.3708816 L11.8876752,23.4547684 C12.3558696,23.5542231 12.8503007,23.6069347 13.39183,23.6144835 L13.7225663,23.6136058 C14.048534,23.6073636 14.3823072,23.6165983 14.7149384,23.6409973 C17.2537123,23.8271468 19.6100674,24.8981939 21.4210425,26.6819379 L21.6645791,26.929577 L21.8977232,27.1822833 L22.2907813,27.6220296 L21.7767366,27.9112835 C19.3900808,29.2540441 16.6741865,29.963712 13.9223448,29.963712 C11.4780489,29.963712 9.06029749,29.4037666 6.87296751,28.3340583 L6.46559316,28.1275264 L6.0679498,27.9112817 C4.73747524,27.1627154 3.51995686,26.2280703 2.45172387,25.1361261 L2.10122512,24.7663583 L1.62943071,24.2376081 L2.34851102,23.6143099 L2.51225794,23.8032198 C3.45301729,24.8885455 4.54409016,25.8350788 5.74783722,26.6116721 L6.15320773,26.8641997 L6.53281397,27.0850315 C8.77754677,28.3480173 11.3329899,29.015712 13.9223448,29.015712 C16.2703592,29.015712 18.5916021,28.4666865 20.6791687,27.421234 L20.772,27.373 L20.7606079,27.3619093 C19.3616053,25.9813939 17.6020114,25.0668893 15.6859028,24.718476 L15.3248482,24.6598068 L14.9807532,24.6167117 L14.6493995,24.5866753 L14.3422558,24.5688054 L14.0399093,24.5604497 L13.7403794,24.5614062 C12.9948859,24.575038 12.3241757,24.5166228 11.6907187,24.3821134 C9.46129531,23.9086146 7.47460439,22.7543319 5.94696072,21.0451343 C4.19388974,19.0836948 3.2283448,16.5536779 3.2283448,13.921712 C3.2283448,8.02478793 8.02543849,3.227712 13.9223448,3.227712 Z M-0.380792725,14.2066433 L0.167442226,14.4610539 L0.643325001,14.6616544 L1.251,14.903 L1.48596959,14.8830528 L1.78079348,14.8457141 L1.92181891,14.8219081 L2.06922334,14.7896281 L2.37319111,14.7158723 L2.38021647,15.0808155 L2.42027761,15.440064 L2.42974499,15.4915161 L2.48837336,15.772554 L2.05339108,15.7997475 L1.77041223,15.807358 L1.6400689,15.8184217 L1.424,15.845 L0.44877334,16.5088523 L-0.0459921996,16.869001 L-0.0618700254,16.2593895 L-0.0788761497,16.0808638 L-0.112573844,15.8969228 L-0.147388044,15.7241255 L0.464,15.347 L0.200167051,15.2589307 L-0.232021362,15.1176037 L-0.215881374,14.8493399 L-0.224184057,14.7914996 L-0.380792725,14.2066433 Z M26.9054572,13.94797 L27.0678735,13.9708375 C27.2254322,14.0004978 27.3680795,14.0505859 27.494931,14.1217554 C27.6641011,14.2166759 27.8031782,14.3405617 27.9095089,14.4921906 C28.0136957,14.6408314 28.085836,14.8106743 28.1258701,14.9993878 C28.1647743,15.1819834 28.1742121,15.3742934 28.1547338,15.5752067 C28.1380322,15.7485338 28.1049836,15.9006719 28.0542798,16.0319851 C28.021842,16.1158804 27.9827385,16.1979338 27.9370285,16.2780872 L27.8635162,16.3968849 L27.7493025,16.5677388 L27.3502258,16.40447 L27.0887743,16.3258708 L27.1247974,15.9496291 L27.2368738,15.8852877 C27.3017399,15.8480491 27.355039,15.7995777 27.3984772,15.7383487 C27.4360376,15.6853261 27.4608362,15.6122524 27.4702143,15.5154122 C27.475788,15.4573471 27.4690031,15.3977025 27.448959,15.3347862 C27.4296324,15.2743103 27.3970976,15.218689 27.3494436,15.166127 C27.3004753,15.1120387 27.2341336,15.063748 27.1484288,15.0217241 C27.0643102,14.9804363 26.9576565,14.9526386 26.8279183,14.9401381 C26.7328085,14.9309682 26.6461941,14.9353871 26.5671451,14.9527854 C26.4921367,14.9692458 26.4282259,14.9959945 26.3738638,15.032686 C26.3236321,15.0666479 26.2832891,15.1097307 26.2513026,15.1638749 C26.2199135,15.2171255 26.1996818,15.2831687 26.1918069,15.3644645 L26.188,15.452 L26.4788714,15.4758253 L27.027538,15.4904281 L26.9277592,15.8241095 L26.9113216,15.9257517 L26.8974065,16.0824154 L26.8973497,16.1712025 L26.9383324,16.5659305 L26.5602076,16.4314998 L26.3448975,16.3978337 L25.8458551,16.3492175 L25.6121289,16.3784332 L25.5690609,16.146859 C25.5418957,16.0007931 25.5235269,15.8542633 25.5140805,15.707724 C25.5042347,15.5567756 25.5063133,15.4085473 25.5204196,15.2630492 C25.5393857,15.0666193 25.5831925,14.8856129 25.6523346,14.7207859 C25.7237453,14.5504832 25.8200402,14.4041874 25.9411535,14.2838407 C26.0640876,14.1615436 26.2080265,14.0699558 26.3708066,14.0104418 C26.494688,13.965076 26.6263532,13.9422707 26.7647945,13.9414643 L26.9054572,13.94797 Z M-0.191418472,12.6834285 L-0.210644596,12.3274987 L0.144550964,12.4336263 L0.21194304,12.4390212 L0.263709608,12.4376888 L0.606117864,12.3915071 L0.522,13.136 L0.664,13.146 L0.667024971,12.8902364 L0.6656969,12.4101532 L1.04773419,12.4944239 L1.06411824,12.4956169 L1.15679665,12.4869462 L1.46314316,12.4630957 L1.424184,12.7678895 L1.38822535,13.1004642 L1.382,13.184 L1.635,13.196 L1.63309336,12.9418707 L1.59948912,12.4369238 L1.98230514,12.5242325 L2.069,12.527 L2.40946387,12.4329231 L2.36484021,12.9862268 L2.32170995,13.8554029 L2.32226931,13.9183128 L2.34512683,14.2196166 L2.04487378,14.1856384 C1.92341157,14.1718932 1.79929477,14.1599473 1.67273075,14.1498199 L1.23593409,14.1227515 L0.825887058,14.1027642 C0.663151214,14.0948952 0.516968478,14.0898321 0.388564376,14.0875609 L0.197261292,14.0856674 L-0.26996321,14.0903811 L-0.214684828,13.4189964 L-0.195740976,13.0178349 L-0.191418472,12.6834285 Z M27.4649879,11.2441156 L28.0209132,11.1613715 L28.0019476,11.4681325 C27.9992881,11.5111485 27.9995008,11.5426097 28.0016216,11.5602542 L28.0125972,11.6120327 L28.0636231,11.7830697 L27.116,12.868 L27.7768601,12.7803881 L27.8564639,12.765064 L28.206589,12.6496933 L28.1842443,13.0176589 C28.181625,13.0607938 28.1818408,13.0927224 28.1838036,13.109754 L28.1948641,13.1618713 L28.2974871,13.5024412 L27.4896218,13.5556308 L26.8837652,13.6069264 L25.6555341,13.7472933 L25.6492725,13.4223828 L25.6377493,13.3241209 L25.5991698,13.1552563 L26.117584,12.5840624 L26.573,12.061 L25.9869368,12.1369059 L25.771974,12.1733857 L25.4551548,12.2401702 L25.4708107,11.9009989 L25.4534303,11.758226 L25.3707688,11.3569153 L25.7195824,11.402 L26.2039159,11.3727862 C26.3418899,11.3634644 26.4933817,11.3516295 26.6597913,11.3372131 L26.8991525,11.3146373 L27.1282354,11.2896112 C27.2633458,11.2736351 27.3756009,11.2584604 27.4649879,11.2441156 Z M1.14842726,9.56421126 C1.33019931,9.53185904 1.52564064,9.54166339 1.73353709,9.59147122 C1.91348107,9.63456993 2.07538238,9.71000676 2.21729965,9.81752619 C2.35710669,9.92349897 2.47159065,10.0521223 2.55950335,10.2020992 C2.64787758,10.3528838 2.70415914,10.5202083 2.72848371,10.7022678 C2.75267209,10.8834435 2.74106783,11.0712215 2.69469196,11.2646299 C2.65253866,11.4407044 2.59042931,11.6027919 2.50813833,11.750485 C2.42005568,11.9081432 2.30640158,12.0389603 2.16794053,12.1407489 C2.02757852,12.24406 1.86475842,12.3125369 1.68212551,12.3464044 C1.4991305,12.3802561 1.29927529,12.3699336 1.08314636,12.3181048 C0.906165924,12.2757089 0.745919767,12.2020889 0.60439281,12.0976235 C0.463664473,11.9938708 0.347843014,11.8666392 0.258164724,11.7171983 C0.168248625,11.5670829 0.110331218,11.3987874 0.0842562457,11.2144292 C0.0582180304,11.0302631 0.0697948401,10.8377066 0.11766067,10.6378274 C0.160983689,10.4566996 0.227147608,10.2919867 0.316301665,10.1447636 C0.40887905,9.99159139 0.524508644,9.86443726 0.662505643,9.7652563 C0.803655063,9.66380964 0.966377103,9.5968473 1.14842726,9.56421126 Z M1.24707146,10.5152207 L1.16169045,10.5156272 C1.08282601,10.5208957 1.01669304,10.5367422 0.962418262,10.5619567 C0.912372958,10.5852398 0.872221323,10.6162465 0.839312341,10.6566729 C0.806208494,10.6972989 0.7829791,10.7451126 0.76909675,10.8031688 C0.755589492,10.8594385 0.756874331,10.9082911 0.771615852,10.9545119 C0.789321137,11.0098495 0.819424879,11.0606189 0.863910919,11.1086047 C0.912954354,11.1615493 0.976880346,11.2094058 1.05655989,11.2515689 C1.14133072,11.2963776 1.23613788,11.3315159 1.34147243,11.3568131 C1.47552407,11.3889242 1.5871761,11.4012611 1.675462,11.3955321 C1.75848747,11.3901847 1.82236681,11.3742654 1.86888171,11.3501034 C1.91281237,11.3274085 1.94476266,11.2999982 1.96856297,11.2659386 C1.99744101,11.2248311 2.01793221,11.1790368 2.03033236,11.1273581 C2.04300107,11.0743585 2.04393432,11.0225467 2.0330947,10.9688868 C2.02318736,10.9196288 2.00051711,10.8722562 1.96256546,10.8245426 C1.92081224,10.7720399 1.85868521,10.7202623 1.77474007,10.6705955 C1.6891056,10.619903 1.57751032,10.5772568 1.4401937,10.5443295 L1.34007414,10.5246956 L1.24707146,10.5152207 Z M27.5506845,9.57433782 L27.6168008,9.96980209 L27.6452315,10.0837634 L27.6809856,10.1954713 L27.717555,10.2892628 L27.8335199,10.5660193 L27.3524985,10.6727285 L27.0392528,10.7508187 L26.7444768,10.8319206 L26.3497344,10.9441683 C26.1899917,10.9896738 26.0505965,11.0313853 25.9304067,11.0696719 L25.5761493,11.1888138 L25.2933986,11.2893833 L25.2380501,10.9547822 L25.1398392,10.6095823 L25.1261252,10.5732266 L25.0106355,10.2959541 L25.4837389,10.1923698 L25.7994224,10.11374 L26.485514,9.92130255 C26.6433485,9.87641132 26.7831971,9.83456414 26.9044484,9.7959768 L27.0890589,9.73560208 L27.5506845,9.57433782 Z M1.61941144,6.89676527 L1.70686578,6.59299277 L2.1339026,6.83301742 L2.78023645,7.1844044 L2.94941151,7.27308991 L3.35291671,7.47615829 L4.05714179,7.82313466 L3.91086554,8.05763497 L3.86283463,8.1443453 L3.82782467,8.2251694 L3.78346797,8.35088279 L3.03676096,8.54883954 L2.371,8.739 L2.84978831,8.97022552 L3.10467888,9.08129808 L3.40713735,9.19787911 L3.20896605,9.47375936 L3.14621004,9.60253207 L2.99675113,9.98337794 L2.72929769,9.75734428 L2.30667063,9.51842743 L1.90457721,9.3005336 L1.48536667,9.08579768 L1.26752989,8.98141167 L0.666385261,8.70864814 L0.849119485,8.46118928 C0.874888026,8.42629349 0.891854161,8.39973065 0.899476108,8.38417569 L0.918448467,8.33461973 L0.9682659,8.16322513 L2.352,7.766 L1.75615165,7.48398792 L1.67501825,7.45114379 L1.32087656,7.35637347 L1.53841856,7.06129174 C1.55544598,7.03819515 1.56874593,7.01853479 1.57803229,7.00331985 L1.59755491,6.96372741 L1.61941144,6.89676527 Z M26.1194938,6.98578909 L26.3821713,6.84242907 L26.4967475,7.18429417 L26.5569704,7.32952476 L26.7472594,7.70168376 C26.7648865,7.73788531 26.7833817,7.77664098 26.8027468,7.81794815 C26.8835726,7.99038878 26.9422781,8.15649764 26.9783895,8.31656381 C27.0177105,8.49078859 27.0228789,8.65852196 26.9923234,8.81797006 C26.9600298,8.98656366 26.8832907,9.14085339 26.765428,9.2774068 C26.6503124,9.41108716 26.4904427,9.52388429 26.2876702,9.61897082 C26.1081213,9.70322578 25.9280381,9.75059107 25.7485202,9.75950469 C25.5706005,9.76819538 25.4012195,9.74404033 25.2422735,9.68662372 C25.0832648,9.62915913 24.9409412,9.54197402 24.8175366,9.42646999 C24.7256535,9.3406154 24.6472742,9.24212417 24.5823396,9.13114108 L24.5218845,9.01599939 L24.1880985,8.29002646 L24.1493502,8.21756227 L23.9909254,7.96262022 L24.4434983,7.78322062 L24.7380859,7.65681869 L25.3864294,7.35567556 C25.5349225,7.28610031 25.6662052,7.22237927 25.7798551,7.16475796 L26.1194938,6.98578909 Z M26.1916186,8.09769148 L26.162,8.037 L25.042,8.562 L25.0496196,8.5798393 C25.102868,8.69331262 25.1708828,8.76695099 25.259444,8.80943292 L25.3298077,8.83558812 C25.4610884,8.87192209 25.6434951,8.84202544 25.8783147,8.73199283 C25.9677288,8.69003559 26.0393473,8.64251375 26.0935802,8.59074391 C26.1460678,8.5403323 26.1831087,8.48888305 26.2067186,8.43552147 C26.2289961,8.38527993 26.2392498,8.33366762 26.2379692,8.27806101 C26.2366354,8.22169987 26.221754,8.16199539 26.1916186,8.09769148 Z M22.7794206,3.11715103 L22.9496763,2.90520243 L23.2453198,3.18753432 L23.4348221,3.37294188 L23.6349931,3.55619438 L23.9624256,3.839017 L24.2731298,4.06992217 L23.9662651,4.27632976 L23.8982368,4.35007812 L23.8744306,4.38576687 L23.704584,4.65896355 L23.183,4.12 L23.085,4.224 L23.409409,4.49442271 L23.6531833,4.69380454 L23.3796037,4.90491544 L23.344782,4.93477932 L23.3296493,4.95199657 L23.2812057,5.02364598 L23.1047563,5.27503322 L22.894413,5.05123507 L22.660739,4.81210679 L22.599,4.754 L22.429,4.942 L22.5618,5.0510321 L22.7611739,5.20020836 L23.0394138,5.39755891 L22.7277366,5.63668761 L22.6699206,5.70127689 L22.583,5.902 L22.880641,5.70167312 L23.0350178,5.59266885 L23.2602586,5.42650072 L23.711547,5.0812264 C23.839788,4.98285045 23.9547543,4.89213997 24.0551155,4.81026502 L24.3482965,4.56297384 L24.5744022,4.36620422 L24.7812294,4.70976179 L24.8494711,4.8050097 L24.9818919,4.96602859 C25.039849,5.03280524 25.1104192,5.12048383 25.1939705,5.22937824 C25.3099484,5.38062435 25.4028949,5.53035839 25.4723431,5.67886876 C25.5480117,5.84059328 25.5889313,6.00323142 25.5933143,6.16576512 C25.5977851,6.33724675 25.5559253,6.50428974 25.4701432,6.66294988 C25.3862805,6.81827503 25.2542895,6.96272151 25.0764221,7.09915872 C24.9188707,7.21990152 24.7531921,7.30465981 24.5799885,7.3516338 C24.4080037,7.3982401 24.2373138,7.4109392 24.0698358,7.38887496 C23.9021556,7.36674174 23.7446959,7.31217753 23.5990849,7.22567935 C23.4549314,7.13992155 23.3294958,7.02734889 23.2233061,6.88904253 L22.7414438,6.25073857 L22.6879722,6.18805104 L22.53,6.025 L22.1821424,5.68924618 L21.4850047,5.05278452 L21.4356464,5.01276501 L21.1883746,4.83883657 L21.5383909,4.49796283 L21.7608232,4.26900292 L21.9686849,4.04436495 L22.2447806,3.74054769 C22.3561743,3.61799239 22.452641,3.50895922 22.5345568,3.41301008 L22.7794206,3.11715103 Z M3.65001876,4.40091925 L3.83928027,4.31962006 L4.04521474,4.62065219 L4.0844871,4.67424687 L4.26097667,4.8830095 L4.02560461,5.17847655 L3.89674641,5.17139 C3.82200308,5.16727949 3.75090289,5.17887575 3.68072512,5.20667338 C3.62046202,5.23049833 3.559909,5.27814515 3.49912608,5.35437935 C3.46297138,5.39972176 3.4362096,5.4533523 3.41857436,5.5175653 C3.40180363,5.5784658 3.39871914,5.64276496 3.40993468,5.7127126 C3.42153261,5.78492031 3.45080926,5.86158236 3.49961899,5.94338434 C3.54778348,6.02399296 3.62208822,6.10553968 3.72398057,6.1868148 C3.7984868,6.24620767 3.87352846,6.28973098 3.94917535,6.3182771 C4.02138556,6.34544609 4.0895377,6.3578941 4.15496399,6.35673446 C4.2155481,6.35566064 4.27274655,6.34154907 4.32955241,6.31334167 C4.38462606,6.28606317 4.4374565,6.24185085 4.48841222,6.17796022 L4.539,6.105 L4.3087421,5.92808869 L3.85581466,5.61612661 L4.10714859,5.40518564 L4.16551024,5.34574353 L4.28840521,5.1915603 L4.33734358,5.1164214 L4.51838303,4.76511867 L4.758255,5.07920517 L4.8259451,5.14313768 L5.09676585,5.3704592 L5.31503015,5.5407581 L5.52753744,5.64344618 L5.4372367,5.86150572 C5.38055947,5.99837075 5.316085,6.13113172 5.24382616,6.2597921 C5.16993545,6.39141951 5.08733078,6.5145641 4.99600084,6.62912812 C4.87273004,6.78360024 4.73731783,6.91142212 4.58971089,7.01161423 C4.4371908,7.11532249 4.27666307,7.1854208 4.10928869,7.22040393 C3.93944086,7.25585966 3.76893238,7.25416775 3.59999673,7.21529134 C3.42858889,7.17588477 3.2673027,7.09528596 3.11779947,6.97605661 C2.94239625,6.83622053 2.8084573,6.68059912 2.71863958,6.50903476 C2.6285083,6.33713559 2.5794705,6.15745927 2.5730486,5.97242396 C2.56676171,5.79114032 2.59891666,5.60944341 2.66829575,5.42904428 C2.73531233,5.25478813 2.83220829,5.08854 2.95805794,4.93078127 C3.0666067,4.79455321 3.17731845,4.6850034 3.29128494,4.60273576 C3.3639063,4.55028219 3.44133447,4.5028999 3.52341885,4.46058694 L3.65001876,4.40091925 Z M24.6571443,5.63368702 L24.616,5.58 L23.633,6.334 L23.6448067,6.34906867 C23.7210027,6.44846278 23.8032019,6.50584116 23.8988138,6.52841199 L23.9731533,6.53892633 C24.1092171,6.54629224 24.2809897,6.47801018 24.4866652,6.32023931 C24.5653588,6.25981544 24.6250431,6.19819523 24.6669409,6.1357333 C24.7073837,6.07553746 24.7325783,6.01740168 24.7441098,5.96080014 C24.7550832,5.90657275 24.7540317,5.85380995 24.7409229,5.79996231 C24.7274516,5.74487452 24.7001721,5.68977084 24.6571443,5.63368702 Z M6.61375193,1.6454657 L6.6773126,2.32883296 L6.73265518,2.75937342 L6.78450113,3.12501154 L6.828,3.409 L6.96274374,3.59960304 L7.14272732,3.83634214 L7.23371623,3.94624948 L7.33560558,4.0578432 L7.55129435,4.28372817 L7.23946367,4.47271993 L6.94790688,4.68773056 L6.69417133,4.91288317 L6.45286471,4.54915465 L6.30502659,4.3087274 L6.23099891,4.20243417 L6.097,4.028 L5.81116505,3.88690405 L4.91445902,3.46010632 L4.47799106,3.2671589 L4.99670021,2.94853866 L5.0946835,2.88126057 L5.28494389,2.72330692 L5.41711656,2.60664648 L6.049,2.948 L6.02119353,2.80272217 L5.89959233,2.22955077 L6.1240208,2.1192911 L6.17186109,2.08623056 L6.61375193,1.6454657 Z M19.5429942,1.15042297 L19.6040302,0.747374797 L20.0382638,1.0563946 L20.1277662,1.11331471 L20.2856456,1.19445614 L20.5235219,1.3038755 L20.3427253,1.90066522 L20.244,2.245 L20.846743,1.71947947 L21.0058334,1.5756644 L21.2435947,1.76619402 L21.2836107,1.78961824 L21.3674581,1.82534348 L21.5931483,1.91541484 L21.5095212,2.14357138 C21.4978639,2.1753754 21.4832519,2.22602953 21.4665574,2.29391705 L21.332,2.893 L21.8193692,2.43244557 L21.8954267,2.35552049 L22.0621231,2.17940498 L22.2791915,2.37074254 L22.3203194,2.3969808 L22.3944272,2.42765792 L22.7982209,2.58007024 L22.2469981,3.03909332 L21.5298277,3.66289658 L20.9684546,4.16326626 L20.6848947,4.42437731 L20.5194295,4.30688725 L20.4080833,4.23580983 L20.3226107,4.18662485 L20.0942695,4.09580224 L20.1552128,3.87846768 L20.2498628,3.51744808 L20.3323575,3.15274071 L20.349,3.069 L19.872485,3.47556703 L19.5518689,3.76056776 L19.3889271,3.64469803 L19.1921569,3.52442115 L18.9650375,3.43410278 L19.1101215,2.89935717 L19.3310744,2.03464745 L19.5429942,1.15042297 Z M8.33721742,0.955825588 C8.51441513,0.931228156 8.68598225,0.94091579 8.85000154,0.985501514 C9.01773709,1.03111696 9.17235856,1.11538629 9.31227617,1.23617345 C9.45191201,1.35676804 9.56750123,1.51470486 9.66004819,1.70780907 C9.73989027,1.87470165 9.78334944,2.0479642 9.78927643,2.22563449 C9.79512266,2.40102151 9.76742835,2.57105207 9.70636047,2.73392268 C9.64494181,2.89742818 9.55051832,3.04652335 9.42447593,3.1802686 C9.29920733,3.3129856 9.14599692,3.42237374 8.96643102,3.50845956 C8.80274227,3.5866955 8.63792296,3.64057192 8.47185274,3.66962606 C8.29411283,3.70064014 8.12088447,3.6948417 7.9543166,3.65151274 C7.78567178,3.6076248 7.62988385,3.52433083 7.48840886,3.40378647 C7.34687604,3.28299311 7.2290458,3.1214593 7.13298394,2.92091368 C7.05442894,2.75674948 7.01058189,2.58593303 7.00247824,2.41035344 C6.99433028,2.23551753 7.02013808,2.0653251 7.07963125,1.90204733 C7.13943006,1.73753105 7.23351167,1.58658978 7.36053274,1.44969867 C7.48735279,1.31337391 7.64422769,1.20092598 7.8293401,1.11233978 C7.99703756,1.03198745 8.1666302,0.979523774 8.33721742,0.955825588 Z M8.269,1.684 L8.21721595,1.6886235 C8.18236778,1.69411255 8.14732432,1.70522817 8.11147031,1.72234853 C8.05920395,1.74739085 8.02196336,1.77926713 7.99547078,1.81961562 C7.96357792,1.86839697 7.94312029,1.92378227 7.93392684,1.98853263 C7.92371242,2.06015325 7.92684472,2.13980459 7.94446741,2.22839343 C7.96299402,2.32225855 7.99544783,2.41800889 8.04222966,2.51581691 C8.10162069,2.63985904 8.16248788,2.73439059 8.22265738,2.79944567 C8.27910418,2.86051926 8.33180296,2.90016523 8.37967088,2.92095225 C8.42510468,2.94078866 8.46660048,2.94834561 8.50786747,2.9453606 C8.55819188,2.94185199 8.60665335,2.92891808 8.65468777,2.90587154 C8.70354794,2.88248032 8.7443641,2.85053332 8.77919387,2.80832666 C8.81114216,2.76963614 8.83367989,2.72206268 8.84686106,2.66243846 C8.86131212,2.59707001 8.86236098,2.51623657 8.84804208,2.41972459 C8.83345249,2.32138811 8.79623556,2.20789214 8.73519598,2.08029436 C8.68910999,1.984103 8.63771491,1.90618748 8.58210497,1.84618258 C8.52819895,1.78815194 8.47424512,1.74680018 8.42033767,1.72042836 C8.38748527,1.70438983 8.35451954,1.69386761 8.32061546,1.68858659 L8.269,1.684 Z M11.989585,-0.200104853 L12.0472061,0.218316507 L12.131639,0.684401533 L12.1640904,0.84868267 C12.1866716,0.96066616 12.2123581,1.07984029 12.2412617,1.20689391 C12.3325622,1.60672678 12.3104894,1.93270551 12.1565119,2.17952578 C12.0044621,2.42330121 11.7480485,2.58224231 11.4033142,2.66082542 C11.259031,2.69377501 11.1189849,2.70947883 10.9833064,2.70756131 C10.8343405,2.70538451 10.6952782,2.67546864 10.568157,2.61706364 C10.4371577,2.55680552 10.324508,2.46681361 10.2321767,2.34963851 C10.139221,2.2316915 10.0743157,2.08512756 10.0346862,1.91153903 L9.88357579,1.22176623 L9.7720124,0.7565879 L9.73856527,0.637297344 L9.64890015,0.351365224 L10.0621537,0.298147258 L10.1661445,0.278440122 L10.310857,0.238001772 L10.6710042,0.11797336 L10.7080035,0.422277555 C10.7308317,0.610029533 10.7584283,0.78326063 10.7907148,0.942102322 C10.8230553,1.1019569 10.8585535,1.26645033 10.8972612,1.43615562 C10.9342107,1.59796189 10.9742524,1.72188125 11.0154891,1.80654232 C11.0500692,1.87781125 11.0841382,1.92326438 11.1133516,1.94546966 C11.1365701,1.96313368 11.1576527,1.97084354 11.1829138,1.97185257 C11.2365456,1.97395884 11.3014507,1.96687427 11.3773107,1.949511 C11.4394588,1.93535553 11.4717942,1.91627836 11.4862975,1.89613872 C11.5135209,1.85822653 11.5314062,1.8088557 11.5387272,1.74382621 C11.5479549,1.66224266 11.5442893,1.56787169 11.526906,1.46110005 C11.5064588,1.33678953 11.4812758,1.20894769 11.4512986,1.07769039 L11.4044636,0.879186797 L11.3023166,0.484803853 L11.1618624,-0.00574069489 L11.5709185,-0.0424600367 L11.6069712,-0.0509618059 L11.989585,-0.200104853 Z M16.5039272,0.0247415101 C16.6896394,0.0055703842 16.8817321,0.0166181778 17.0795294,0.0573392802 C17.2501552,0.0924474659 17.3979008,0.141439742 17.522858,0.205717002 C17.602664,0.246812102 17.6800228,0.294427423 17.754914,0.348483458 L17.8653972,0.43438811 L18.0233732,0.566314843 L17.8482945,0.886247969 L17.8182425,0.945547785 L17.7915366,1.00586416 L17.7126867,1.19754348 L17.3420983,1.12092183 L17.2901307,1.00302047 C17.2599398,0.934524826 17.2173717,0.876339749 17.1611229,0.826659526 C17.1123996,0.783691409 17.0423324,0.751241319 16.9469739,0.731604055 C16.8899642,0.719885383 16.8299826,0.720295728 16.7650658,0.733599558 C16.7031136,0.746288568 16.6443289,0.772728229 16.5871163,0.814395113 C16.5279285,0.857549613 16.4727742,0.918471913 16.4219888,0.999150693 C16.3719817,1.07839464 16.3329922,1.18144557 16.3066953,1.30920596 C16.2874779,1.40255394 16.2826969,1.48908585 16.2916351,1.56982616 C16.3000019,1.64608315 16.3197902,1.71239909 16.3507297,1.7706941 C16.3789077,1.82394602 16.417408,1.86855812 16.4680734,1.90619438 C16.5176948,1.94312436 16.5811435,1.97026839 16.6608367,1.98662072 L16.748,1.999 L16.8023719,1.71298846 L16.8742709,1.16874736 L17.19644,1.30387763 L17.2960708,1.33106033 L17.4837298,1.36633917 L17.5381116,1.37094893 L17.9346996,1.37202955 L17.7612761,1.73366963 L17.7368208,1.81704189 L17.6564643,2.16314531 L17.6034981,2.43607137 L17.6070318,2.67071538 L17.3730801,2.68907013 C17.225555,2.70064425 17.0778805,2.70331778 16.930306,2.6971287 C16.779828,2.69093796 16.632656,2.67307466 16.4888388,2.64355623 C16.2956288,2.60384155 16.120209,2.54101233 15.9634659,2.45466909 C15.801814,2.36548652 15.6666627,2.25419045 15.559986,2.12112304 C15.4514693,1.98602495 15.3757508,1.8332343 15.3337008,1.66482193 C15.2910918,1.49417083 15.2898702,1.31402349 15.3284153,1.12648783 C15.3736279,0.906733784 15.4516342,0.716899974 15.5639366,0.558903527 C15.6763457,0.400728817 15.8142902,0.275597964 15.9764417,0.185913698 C16.1351996,0.0982063649 16.3117116,0.0445770324 16.5039272,0.0247415101 Z M15.0326459,-0.304236728 L15.0000811,0.504281658 L14.9896142,0.920046548 L14.9868134,1.11396923 L14.9959741,2.34795294 L14.7206028,2.32309303 C14.689134,2.32025209 14.6564797,2.31903241 14.6215303,2.31944784 L14.5334251,2.32465596 L14.4014817,2.34155511 L13.8883442,1.76531442 L13.417,1.257 L13.4298775,1.84747987 L13.4434711,2.0662855 L13.4753185,2.38884249 L13.1403954,2.33599332 L12.9966825,2.33816915 L12.939034,2.34261793 L12.5888994,2.37784359 L12.6707496,2.02913717 L12.6931996,1.55125052 L12.7061669,1.09400765 L12.7090848,0.854864917 L12.7064932,0.494965467 L12.675464,-0.277628327 L12.9782904,-0.226806404 C13.0212744,-0.219592617 13.0529983,-0.216407479 13.0703699,-0.216578347 L13.0920897,-0.21799556 L13.2983373,-0.254738192 L14.276,0.8 L14.2654689,0.260461146 L14.2528587,0.0549172689 L14.1765927,-0.304335651 L14.5387864,-0.243550404 C14.5815858,-0.236367594 14.6132654,-0.23320551 14.6308699,-0.233378386 L14.6831998,-0.238824259 L15.0326459,-0.304236728 Z" id="Combined-Shape"></path>
        </g>
    </g>
</svg>