<?xml version="1.0" encoding="UTF-8"?>
<svg width="64px" height="11px" viewBox="0 0 64 11" version="1.1" xmlns="http://www.w3.org/2000/svg" xmlns:xlink="http://www.w3.org/1999/xlink">
    <title>Group 7</title>
    <g id="Page-1" stroke="none" stroke-width="1" fill="none" fill-rule="evenodd" opacity="0.8">
        <g id="Mobile-Copy-19" transform="translate(-264.000000, -985.000000)" fill="#FFFFFF" fill-rule="nonzero">
            <g id="Group-Copy-9" transform="translate(256.000000, 978.000000)">
                <g id="Group-7" transform="translate(8.636000, 7.003906)">
                    <path d="M8.808,10.8840937 L8.808,0.13209375 L7.824,0.13209375 L7.824,10.8840937 L8.808,10.8840937 Z M0.576,8.82009375 C1.8,8.19609375 2.856,6.84009375 3.348,5.26809375 C3.864,6.74409375 4.92,7.98009375 6.168,8.55609375 L6.72,7.76409375 C5.136,7.09209375 3.84,5.23209375 3.84,3.40809375 L3.84,2.04009375 L6.372,2.04009375 L6.372,1.22409375 L0.36,1.22409375 L0.36,2.04009375 L2.856,2.04009375 L2.856,3.40809375 C2.856,5.26809375 1.548,7.29609375 -6.4659389e-13,8.02809375 L0.576,8.82009375 Z M21.0387692,9.52809375 L21.0387692,8.71209375 L16.6347692,8.71209375 L16.6347692,5.95209375 L19.9107692,5.95209375 L19.9107692,5.16009375 L13.4907692,5.16009375 L13.4907692,1.78809375 L19.8027692,1.78809375 L19.8027692,0.98409375 L12.5067692,0.98409375 L12.5067692,5.95209375 L15.6387692,5.95209375 L15.6387692,8.71209375 L11.2587692,8.71209375 L11.2587692,9.52809375 L21.0387692,9.52809375 Z M34.3163077,5.64009375 L34.3163077,0.12009375 L33.3323077,0.12009375 L33.3323077,1.41609375 L30.6203077,1.41609375 C30.1283077,0.84009375 29.3363077,0.49209375 28.4003077,0.49209375 C26.7923077,0.49209375 25.6283077,1.48809375 25.6283077,2.94009375 C25.6283077,4.36809375 26.7923077,5.37609375 28.4003077,5.37609375 C29.3603077,5.38809375 30.1523077,5.01609375 30.6563077,4.41609375 L33.3323077,4.41609375 L33.3323077,5.64009375 L34.3163077,5.64009375 Z M28.4003077,4.58409375 C27.3323077,4.58409375 26.5643077,3.90009375 26.5643077,2.94009375 C26.5643077,1.96809375 27.3323077,1.29609375 28.4003077,1.29609375 C29.4563077,1.29609375 30.2243077,1.96809375 30.2243077,2.94009375 C30.2243077,3.90009375 29.4563077,4.58409375 28.4003077,4.58409375 Z M33.3323077,3.63609375 L31.0643077,3.63609375 C31.1243077,3.42009375 31.1603077,3.18009375 31.1603077,2.94009375 C31.1603077,2.67609375 31.1243077,2.42409375 31.0523077,2.19609375 L33.3323077,2.19609375 L33.3323077,3.63609375 Z M34.7243077,10.7400937 L34.7243077,9.96009375 L28.3763077,9.96009375 L28.3763077,8.78409375 L34.3163077,8.78409375 L34.3163077,6.19209375 L27.3803077,6.19209375 L27.3803077,6.97209375 L33.3443077,6.97209375 L33.3443077,8.04009375 L27.4043077,8.04009375 L27.4043077,10.7400937 L34.7243077,10.7400937 Z M45.5630769,10.8840937 L45.5630769,0.12009375 L44.5790769,0.12009375 L44.5790769,10.8840937 L45.5630769,10.8840937 Z M37.4030769,8.88009375 C40.9790769,7.12809375 42.4070769,4.39209375 42.4070769,1.28409375 L37.3670769,1.28409375 L37.3670769,2.07609375 L41.4110769,2.07609375 C41.2070769,4.63209375 39.7670769,6.69609375 36.8750769,8.07609375 L37.4030769,8.88009375 Z" id="지도열기"></path>
                    <path d="M56.362829,6.4921875 C56.4994411,6.4921875 56.6184887,6.4453125 56.7199719,6.3515625 L61.3569742,1.69921875 L61.3569742,3.4921875 C61.3569742,3.6328125 61.4057642,3.75195313 61.5033443,3.84960938 C61.6009243,3.94726563 61.7199719,3.99609375 61.8604871,3.99609375 C62.0010023,3.99609375 62.12005,3.94726563 62.21763,3.84960938 C62.31521,3.75195313 62.364,3.6328125 62.364,3.4921875 L62.364,0.4921875 C62.364,0.4609375 62.3600968,0.4296875 62.3522904,0.3984375 C62.344484,0.3671875 62.3327744,0.3359375 62.3171616,0.3046875 C62.3093552,0.2734375 62.295694,0.244140625 62.276178,0.216796875 L62.2454403,0.177246094 L62.2454403,0.177246094 L62.2117752,0.140625 L62.2117752,0.140625 C62.188356,0.1171875 62.1629852,0.09765625 62.1356628,0.08203125 C62.1083404,0.06640625 62.0790664,0.05078125 62.0478407,0.03515625 C62.0244215,0.01953125 61.9951475,0.009765625 61.9600187,0.005859375 C61.9248899,0.001953125 61.8917127,0 61.8604871,0 L58.862829,0 C58.7223138,0 58.6032662,0.048828125 58.5056862,0.146484375 C58.4081062,0.244140625 58.3593162,0.359375 58.3593162,0.4921875 C58.3593162,0.6328125 58.4081062,0.751953125 58.5056862,0.849609375 C58.6032662,0.947265625 58.7223138,0.99609375 58.862829,0.99609375 L60.6543981,0.99609375 L56.0173958,5.6484375 C55.9159126,5.7421875 55.865171,5.85742188 55.865171,5.99414063 C55.865171,6.13085938 55.9159126,6.25 56.0173958,6.3515625 C56.1110726,6.4453125 56.226217,6.4921875 56.362829,6.4921875 Z M59.3663419,9.99609375 C59.5693084,9.99609375 59.7625168,9.95703125 59.9459672,9.87890625 C60.1294176,9.80078125 60.2874973,9.69140625 60.4202061,9.55078125 C60.5529149,9.41796875 60.6602529,9.25976562 60.7422201,9.07617188 C60.8241874,8.89257812 60.865171,8.69921875 60.865171,8.49609375 L60.865171,5.49609375 C60.865171,5.35546875 60.816381,5.23632812 60.7188009,5.13867188 C60.6212209,5.04101562 60.5021733,4.9921875 60.3616581,4.9921875 C60.2211429,4.9921875 60.1020952,5.04101562 60.0045152,5.13867188 C59.9069352,5.23632812 59.8581452,5.35546875 59.8581452,5.49609375 L59.8581452,8.49609375 C59.8581452,8.56640625 59.8464356,8.63085938 59.8230164,8.68945312 C59.7995972,8.74804688 59.7644684,8.80078125 59.71763,8.84765625 C59.6707916,8.89453125 59.6161468,8.93164062 59.5536956,8.95898438 C59.4912443,8.98632812 59.4287931,9 59.3663419,9 L53.862829,9 C53.8003778,9 53.7379266,8.98632812 53.6754754,8.95898438 C53.6130242,8.93164062 53.5583794,8.89453125 53.511541,8.84765625 C53.4647026,8.80078125 53.4295738,8.74804688 53.4061546,8.68945312 C53.3827354,8.63085938 53.3710258,8.56640625 53.3710258,8.49609375 L53.3710258,3 C53.3710258,2.9296875 53.3827354,2.86328125 53.4061546,2.80078125 C53.4295738,2.73828125 53.4647026,2.6875 53.511541,2.6484375 C53.5583794,2.6015625 53.6130242,2.56445312 53.6754754,2.53710938 C53.7379266,2.50976562 53.8003778,2.49609375 53.862829,2.49609375 L56.8604871,2.49609375 C57.0010023,2.49609375 57.12005,2.44726562 57.21763,2.34960938 C57.31521,2.25195312 57.364,2.1328125 57.364,1.9921875 C57.364,1.859375 57.31521,1.74414062 57.21763,1.64648438 C57.12005,1.54882812 57.0010023,1.5 56.8604871,1.5 L53.862829,1.5 C53.6598626,1.5 53.4666542,1.5390625 53.2832037,1.6171875 C53.0997533,1.6953125 52.9416737,1.80078125 52.8089649,1.93359375 C52.676256,2.07421875 52.568918,2.234375 52.4869508,2.4140625 C52.4049836,2.59375 52.364,2.7890625 52.364,3 L52.364,8.49609375 C52.364,8.69921875 52.403032,8.89257812 52.481096,9.07617188 C52.55916,9.25976562 52.6684496,9.41796875 52.8089649,9.55078125 C52.9416737,9.69140625 53.0997533,9.80078125 53.2832037,9.87890625 C53.4666542,9.95703125 53.6598626,9.99609375 53.862829,9.99609375 L59.3663419,9.99609375 Z" id=""></path>
                </g>
            </g>
        </g>
    </g>
</svg>