<?xml version="1.0" encoding="UTF-8"?>
<svg width="43px" height="11px" viewBox="0 0 43 11" version="1.1" xmlns="http://www.w3.org/2000/svg" xmlns:xlink="http://www.w3.org/1999/xlink">
    <title>Group</title>
    <g id="Page-1" stroke="none" stroke-width="1" fill="none" fill-rule="evenodd" opacity="0.8">
        <g id="Mobile-Copy-18" transform="translate(-268.000000, -655.000000)" fill="#FFFFFF" fill-rule="nonzero">
            <g id="Group" transform="translate(259.000000, 648.000000)">
                <g id="Group-7" transform="translate(8.020000, 6.124000)">
                    <path d="M9.76,11.752 L9.76,1 L8.824,1 L8.824,11.752 L9.76,11.752 Z M7.624,11.224 L7.624,1.24 L6.688,1.24 L6.688,5.056 L5.092,5.056 L5.092,2.248 L1,2.248 L1,8.872 L5.092,8.872 L5.092,5.872 L6.688,5.872 L6.688,11.224 L7.624,11.224 Z M4.18,8.092 L1.924,8.092 L1.924,3.028 L4.18,3.028 L4.18,8.092 Z M20.6947692,11.788 L20.6947692,1 L19.7107692,1 L19.7107692,11.788 L20.6947692,11.788 Z M12.4387692,9.532 C13.6987692,8.884 14.7307692,7.54 15.2227692,5.92 C15.7387692,7.456 16.7707692,8.728 17.9947692,9.328 L18.5827692,8.536 C16.9867692,7.816 15.7027692,5.836 15.7027692,3.868 L15.7027692,1.936 L14.7307692,1.936 L14.7307692,3.868 C14.7307692,5.908 13.4227692,7.972 11.8387692,8.728 L12.4387692,9.532 Z M31.9655385,11.764 L31.9655385,1.012 L30.9815385,1.012 L30.9815385,11.764 L31.9655385,11.764 Z M23.7335385,9.7 C24.9575385,9.076 26.0135385,7.72 26.5055385,6.148 C27.0215385,7.624 28.0775385,8.86 29.3255385,9.436 L29.8775385,8.644 C28.2935385,7.972 26.9975385,6.112 26.9975385,4.288 L26.9975385,2.92 L29.5295385,2.92 L29.5295385,2.104 L23.5175385,2.104 L23.5175385,2.92 L26.0135385,2.92 L26.0135385,4.288 C26.0135385,6.148 24.7055385,8.176 23.1575385,8.908 L23.7335385,9.7 Z" id="메시지"></path>
                    <path d="M39.4839062,9.87209375 C39.6245312,9.87209375 39.7417187,9.8213125 39.8354687,9.71975 L42.8354687,6.71975 C42.9370312,6.626 42.9878125,6.51076562 42.9878125,6.37404687 C42.9878125,6.23732812 42.9370312,6.1181875 42.8354687,6.016625 L39.8354687,3.016625 C39.7417187,2.922875 39.6245312,2.876 39.4839062,2.876 C39.3432812,2.876 39.2260937,2.922875 39.1323437,3.016625 C39.0307812,3.1181875 38.98,3.23732812 38.98,3.37404687 C38.98,3.51076562 39.0307812,3.626 39.1323437,3.71975 L41.7807812,6.3681875 L39.1323437,9.016625 C39.0307812,9.1181875 38.98,9.23732812 38.98,9.37404687 C38.98,9.51076562 39.0307812,9.626 39.1323437,9.71975 C39.2260937,9.8213125 39.3432812,9.87209375 39.4839062,9.87209375 Z" id=""></path>
                </g>
            </g>
        </g>
    </g>
</svg>