<?xml version="1.0" encoding="UTF-8"?>
<svg width="58px" height="11px" viewBox="0 0 58 11" version="1.1" xmlns="http://www.w3.org/2000/svg" xmlns:xlink="http://www.w3.org/1999/xlink">
    <title>문자보내기</title>
    <g id="Page-1" stroke="none" stroke-width="1" fill="none" fill-rule="evenodd" opacity="0.8">
        <g id="Mobile-Copy-19" transform="translate(-267.000000, -655.000000)" fill="#FFFFFF" fill-rule="nonzero">
            <g id="Group" transform="translate(259.000000, 648.000000)">
                <path d="M17.12,11.408 L17.12,7.628 L9.884,7.628 L9.884,11.408 L17.12,11.408 Z M16.148,10.616 L10.844,10.616 L10.844,8.42 L16.148,8.42 L16.148,10.616 Z M14.072,15.596 L14.072,13.424 L18.392,13.424 L18.392,12.632 L8.612,12.632 L8.612,13.424 L13.088,13.424 L13.088,15.596 L14.072,15.596 Z M17.3,17.648 L17.3,16.844 L10.844,16.844 L10.844,14.576 L9.86,14.576 L9.86,17.648 L17.3,17.648 Z M28.1867692,17.888 L28.1867692,12.296 L29.9627692,12.296 L29.9627692,11.468 L28.1867692,11.468 L28.1867692,7.136 L27.2027692,7.136 L27.2027692,17.888 L28.1867692,17.888 Z M20.3027692,15.824 C21.5147692,15.2 22.5587692,13.832 23.0507692,12.26 C23.5427692,13.7 24.5507692,14.96 25.7507692,15.56 L26.3147692,14.768 C24.7547692,14.036 23.5307692,12.128 23.5307692,10.412 L23.5307692,9.044 L25.9187692,9.044 L25.9187692,8.228 L20.0987692,8.228 L20.0987692,9.044 L22.5587692,9.044 L22.5587692,10.412 C22.5587692,12.236 21.2627692,14.276 19.7267692,15.044 L20.3027692,15.824 Z M43.8523077,16.508 L43.8523077,15.704 L39.4603077,15.704 L39.4603077,13.388 L42.6763077,13.388 L42.6763077,7.892 L41.7163077,7.892 L41.7163077,9.812 L36.2203077,9.812 L36.2203077,7.892 L35.2483077,7.892 L35.2483077,13.388 L38.4643077,13.388 L38.4643077,15.704 L34.0963077,15.704 L34.0963077,16.508 L43.8523077,16.508 Z M41.7163077,12.596 L36.2203077,12.596 L36.2203077,10.616 L41.7163077,10.616 L41.7163077,12.596 Z M54.4990769,17.876 L54.4990769,7.124 L53.5510769,7.124 L53.5510769,11.504 L52.0270769,11.504 L52.0270769,7.364 L51.1030769,7.364 L51.1030769,17.336 L52.0270769,17.336 L52.0270769,12.32 L53.5510769,12.32 L53.5510769,17.876 L54.4990769,17.876 Z M46.5790769,15.092 C47.7430769,15.092 48.9790769,15.032 50.4310769,14.756 L50.3350769,13.904 C49.0510769,14.156 47.9110769,14.228 46.8790769,14.24 L46.8790769,8.432 L45.8950769,8.432 L45.8950769,15.092 L46.5790769,15.092 Z M65.4698462,17.888 L65.4698462,7.124 L64.4858462,7.124 L64.4858462,17.888 L65.4698462,17.888 Z M57.3098462,15.884 C60.8858462,14.132 62.3138462,11.396 62.3138462,8.288 L57.2738462,8.288 L57.2738462,9.08 L61.3178462,9.08 C61.1138462,11.636 59.6738462,13.7 56.7818462,15.08 L57.3098462,15.884 Z" id="문자보내기"></path>
            </g>
        </g>
    </g>
</svg>