<?xml version="1.0" encoding="UTF-8"?>
<svg width="120px" height="128px" viewBox="0 0 120 128" version="1.1" xmlns="http://www.w3.org/2000/svg" xmlns:xlink="http://www.w3.org/1999/xlink">
    <title>Group 41</title>
    <g id="Page-1" stroke="none" stroke-width="1" fill="none" fill-rule="evenodd">
        <g id="Mobile-Copy-19" transform="translate(-219.000000, -31.000000)">
            <g id="Group-41" transform="translate(219.000000, 31.000000)">
                <path d="M27.001632,117.84924 C20.268912,114.06132 14.257632,109.14252 9.231792,103.34436" id="Stroke-1" stroke="#FFFFFF" stroke-width="1.92"></path>
                <path d="M92.332848,88.83948 C99.065568,92.6274 105.076848,97.54644 110.102688,103.3446" id="Stroke-3" stroke="#FFFFFF" stroke-width="1.92"></path>
                <path d="M59.667192,14.90448 C34.986552,14.90448 14.907192,34.9836 14.907192,59.66448 C14.907192,70.68072 18.948072,81.26952 26.285832,89.47944 C32.681352,96.63504 40.993992,101.4648 50.325672,103.44672 C52.962552,104.00664 55.757112,104.2488 58.867752,104.19192 C60.176472,104.1672 61.513032,104.20416 62.845032,104.30184 L62.915352,103.34448 L62.845272,104.30184 C73.548552,105.08664 83.427672,109.79544 90.798312,117.59808 C81.277512,122.72184 70.541352,125.42448 59.667192,125.42448 C48.386232,125.42448 37.253352,122.51568 27.472392,117.01248 L26.530872,118.686 C36.598632,124.35024 48.057192,127.34448 59.667192,127.34448 C71.277192,127.34448 82.735752,124.35024 92.803512,118.686 L93.844632,118.10016 L93.048552,117.20952 C85.265832,108.50184 74.589192,103.23792 62.985672,102.38712 C61.595112,102.28512 60.197592,102.24624 58.831512,102.2724 C55.867992,102.3276 53.216952,102.09792 50.724552,101.56848 C42.188232,99.75552 34.543512,95.44968 28.538712,89.09064 C38.059032,83.9676 48.793992,81.26448 59.667192,81.26448 C70.948152,81.26448 82.081032,84.17304 91.862232,89.67624 L92.803512,88.00272 C83.013192,82.49472 71.907912,79.51248 60.627192,79.35216 L60.627192,59.10192 L73.151832,71.62656 L74.509512,70.26912 L61.984872,57.74448 L79.697112,57.74448 L79.697112,55.82448 L61.984872,55.82448 L74.509512,43.29984 L73.151832,41.9424 L60.627192,54.46704 L60.627192,30.2196 L58.707192,30.2196 L58.707192,54.4668 L46.182792,41.9424 L44.825112,43.29984 L57.349752,55.82448 L39.637272,55.82448 L39.637272,57.74448 L57.349752,57.74448 L44.825112,70.26912 L46.182792,71.62656 L58.707192,59.10216 L58.707192,79.35216 C47.688312,79.50888 36.837672,82.35936 27.215592,87.62496 C20.511672,79.85088 16.827192,69.95352 16.827192,59.66448 C16.827192,36.04248 36.045192,16.82448 59.667192,16.82448 C83.289192,16.82448 102.507192,36.04248 102.507192,59.66448 C102.507192,67.962 100.130472,76.01136 95.634072,82.94256 L97.244952,83.98752 C101.943672,76.74456 104.427192,68.33376 104.427192,59.66448 C104.427192,34.9836 84.347832,14.90448 59.667192,14.90448" id="Fill-5" fill="#FFFFFF"></path>
                <path d="M3.308904,65.125896 C2.976744,64.989336 2.630184,64.858776 2.269464,64.734216 C1.908504,64.610136 1.545624,64.489656 1.181304,64.373976 C0.816744,64.258536 0.468264,64.145736 0.134424,64.035096 C0.141384,63.938856 0.145704,63.840936 0.147144,63.740856 C0.149304,63.641016 0.144024,63.539496 0.132984,63.436776 C0.121464,63.333816 0.103944,63.233736 0.079704,63.136536 C0.055944,63.039816 0.029544,62.936376 2.39999999e-05,62.826696 C0.255864,62.945736 0.591144,63.092376 1.005624,63.267576 C1.420344,63.442536 1.868424,63.629256 2.350104,63.826776 C2.832264,64.024776 3.325224,64.223976 3.828984,64.423416 C4.333224,64.623336 4.797864,64.803576 5.223624,64.963896 C5.429304,64.941336 5.637624,64.922376 5.848824,64.907736 C6.059784,64.892616 6.272424,64.873176 6.486504,64.849416 C6.923784,64.800936 7.355544,64.745736 7.782744,64.685256 C8.209944,64.624536 8.655864,64.538136 9.120744,64.425336 C9.123624,64.607256 9.135144,64.790616 9.155784,64.974696 C9.176424,65.159016 9.196584,65.340936 9.216984,65.520936 C9.237144,65.700936 9.257064,65.883096 9.277704,66.067416 C9.298104,66.251736 9.327144,66.432696 9.364344,66.611016 C8.968344,66.637896 8.562264,66.653016 8.145624,66.655656 C7.729704,66.658776 7.315944,66.683256 6.904104,66.729096 C6.707304,66.750936 6.508344,66.775656 6.307224,66.802296 C6.106824,66.829416 5.907864,66.857736 5.711784,66.888456 C5.307144,67.150536 4.856664,67.450536 4.361064,67.787736 C3.864264,68.124936 3.383064,68.452056 2.914584,68.769096 C2.446824,69.085896 2.023704,69.376056 1.644984,69.639816 C1.266504,69.902856 0.993144,70.096296 0.824664,70.219656 C0.819864,70.020216 0.813384,69.825576 0.805224,69.635736 C0.796824,69.445896 0.781704,69.251976 0.759624,69.054696 C0.737544,68.857896 0.710184,68.668296 0.676344,68.484936 C0.643224,68.302056 0.607224,68.113416 0.567864,67.918056 C0.868824,67.737096 1.201704,67.532616 1.566984,67.305576 C1.932264,67.078296 2.289144,66.853896 2.637384,66.632616 C2.985864,66.411576 3.301464,66.207336 3.583944,66.019416 C3.866904,65.831496 4.075944,65.682456 4.211304,65.572056 L4.207944,65.545896 C3.940584,65.402616 3.641064,65.262456 3.308904,65.125896" id="Fill-7" fill="#FFFFFF"></path>
                <path d="M1.684224,59.304 C1.127904,59.29416 0.568944,59.29296 0.007344,59.3004 C0.034704,58.91304 0.066144,58.53048 0.101664,58.15224 C0.137664,57.77424 0.164544,57.39096 0.183504,57.0036 C0.214464,56.36616 0.235344,55.79952 0.246384,55.30344 C0.257664,54.8076 0.258864,54.47304 0.249504,54.29976 C0.386064,54.34104 0.566304,54.3672 0.789744,54.378 C0.927984,54.38472 1.035744,54.38568 1.113504,54.3804 C1.191264,54.37584 1.278384,54.3672 1.373664,54.35424 C1.344624,54.6036 1.314144,54.876 1.282224,55.17216 C1.250544,55.4688 1.219584,55.75656 1.188864,56.03544 C1.158144,56.31504 1.132944,56.56608 1.113264,56.78952 C1.094064,57.0132 1.081584,57.17232 1.077264,57.26688 C1.549344,57.32448 2.018064,57.36672 2.482464,57.39336 C2.947824,57.42024 3.417264,57.44544 3.890784,57.46824 C3.909264,56.90784 3.921024,56.40096 3.925824,55.94832 C3.930144,55.49472 3.931584,55.02216 3.929664,54.52992 C4.075344,54.56304 4.185984,54.5856 4.263024,54.59808 C4.340064,54.61032 4.421904,54.61872 4.508304,54.6228 C4.577184,54.62616 4.648224,54.62304 4.722384,54.61392 C4.796064,54.60456 4.902144,54.59448 5.040864,54.58368 C4.915824,55.56192 4.829424,56.538 4.782384,57.5112 C5.058624,57.52488 5.333904,57.54048 5.609184,57.55824 C5.884704,57.57576 6.160224,57.59112 6.435744,57.60456 C6.995904,57.63168 7.534464,57.64488 8.052624,57.64416 C8.076624,57.15288 8.087664,56.66136 8.085504,56.16888 C8.083344,55.67712 8.064624,55.1796 8.028384,54.67704 C8.122464,54.69912 8.207904,54.7164 8.284704,54.72816 C8.361744,54.7404 8.469264,54.75 8.607504,54.75696 C8.745024,54.76368 8.852784,54.76464 8.930784,54.7596 C9.009264,54.75504 9.074064,54.74496 9.126624,54.73032 C9.106704,54.96216 9.086304,55.24848 9.065664,55.5888 C9.044544,55.92864 9.020064,56.39592 8.991024,56.99016 C8.965584,57.51552 8.944944,57.942 8.929104,58.26936 C8.913504,58.58808 8.901024,58.84416 8.891664,59.03832 C8.882544,59.232 8.877264,59.37864 8.877024,59.47776 C8.876304,59.57736 8.878944,59.66136 8.884224,59.73096 C8.351904,59.67072 7.808304,59.6184 7.253424,59.574 C6.698784,59.53008 6.063744,59.49048 5.349024,59.45592 L3.591264,59.37024 C2.876544,59.33568 2.240544,59.31384 1.684224,59.304" id="Fill-9" fill="#FFFFFF"></path>
                <path d="M6.421416,44.147928 C5.876376,44.017608 5.371896,43.967928 4.907256,43.997928 C4.443816,44.028888 4.031736,44.127288 3.672696,44.294088 C3.313656,44.461128 3.011256,44.693928 2.766456,44.994648 C2.521416,45.295368 2.350536,45.646728 2.254296,46.049208 C2.151576,46.477128 2.162376,46.885368 2.286456,47.274408 C2.410776,47.662968 2.620536,48.017208 2.916456,48.336408 C3.212136,48.655608 3.582936,48.933048 4.027416,49.168248 C4.472376,49.403448 4.962936,49.585128 5.499576,49.714008 C6.170856,49.874808 6.753816,49.939368 7.249416,49.907208 C7.745016,49.875288 8.162136,49.771368 8.501256,49.595208 C8.840856,49.419768 9.111336,49.187688 9.313416,48.898488 C9.515736,48.610488 9.659016,48.289848 9.743496,47.937768 C9.833736,47.560248 9.840936,47.180808 9.763656,46.798248 C9.686856,46.416408 9.515496,46.058328 9.249576,45.724008 C8.983896,45.389928 8.617896,45.084888 8.151816,44.809128 C7.685976,44.533368 7.109016,44.312808 6.421416,44.147928 M4.891656,51.749928 C4.271496,51.601368 3.716376,51.346488 3.226056,50.984568 C2.736456,50.623608 2.336376,50.183928 2.025576,49.666008 C1.715496,49.148328 1.514136,48.563448 1.421976,47.911848 C1.329816,47.260008 1.371576,46.569528 1.546296,45.839928 C1.706856,45.168648 1.949016,44.566008 2.272536,44.031768 C2.595576,43.497288 2.992776,43.060248 3.464616,42.721128 C3.936456,42.382008 4.484376,42.156408 5.109576,42.044328 C5.735256,41.932968 6.425496,41.967528 7.179816,42.148248 C7.809096,42.298968 8.367336,42.559128 8.855496,42.928968 C9.343416,43.298808 9.739656,43.744248 10.044936,44.265048 C10.350456,44.786328 10.545816,45.367368 10.631496,46.008648 C10.717176,46.650408 10.675656,47.322888 10.506696,48.027528 C10.348056,48.690168 10.116696,49.293048 9.813816,49.836648 C9.509976,50.380488 9.124536,50.824488 8.656056,51.168888 C8.187816,51.513528 7.640616,51.743448 7.014216,51.859608 C6.387576,51.975528 5.680296,51.939048 4.891656,51.749928" id="Fill-11" fill="#FFFFFF"></path>
                <path d="M6.839304,37.977984 C6.305304,37.714944 5.853144,37.501824 5.481624,37.338384 C5.110104,37.174464 4.783464,37.028304 4.500984,36.898704 C4.646664,36.701424 4.751784,36.536784 4.816344,36.405024 C4.881144,36.273264 4.947624,36.090144 5.015304,35.853984 C6.366984,35.471904 7.698264,35.091744 9.009384,34.713264 C10.320504,34.335024 11.657064,33.943104 13.020024,33.537264 L12.010344,33.040464 L10.884504,32.486064 C10.505784,32.299584 10.131144,32.117424 9.761784,31.940304 C9.392424,31.763424 9.052344,31.600704 8.740584,31.452144 C8.429304,31.303344 8.158344,31.179744 7.928424,31.081104 C7.698024,30.981984 7.540824,30.921264 7.455624,30.898464 C7.601064,30.701184 7.705704,30.536304 7.770744,30.404784 C7.835544,30.273264 7.902024,30.089904 7.969944,29.853984 C8.654904,30.239664 9.276024,30.583584 9.833544,30.886944 C10.390824,31.190304 10.916664,31.473264 11.412264,31.736304 C11.907384,31.999584 12.400104,32.253984 12.889464,32.499744 C13.378824,32.745744 13.902024,33.005424 14.458824,33.279744 L15.851784,33.965664 C15.759864,34.113024 15.674184,34.267584 15.594264,34.430064 C15.510264,34.600224 15.443784,34.754784 15.394584,34.894224 C12.752904,35.573904 10.051944,36.344064 7.291944,37.205664 C7.512504,37.323984 7.733784,37.440384 7.956024,37.554384 C8.178984,37.669104 8.406024,37.783104 8.637864,37.897344 L9.984264,38.560464 C10.448664,38.788944 10.844184,38.981424 11.171064,39.137664 C11.497944,39.293424 11.775144,39.423024 12.003624,39.525744 C12.232104,39.628704 12.419544,39.711744 12.566424,39.774144 C12.713304,39.837024 12.831384,39.885264 12.920424,39.919584 C12.858984,40.004784 12.805464,40.093824 12.759864,40.186464 C12.714264,40.279584 12.670344,40.368384 12.628344,40.453344 C12.540504,40.631424 12.460824,40.813104 12.388584,40.998864 C12.334344,40.953024 12.123624,40.825104 11.755464,40.614624 C11.388024,40.405104 10.937784,40.152384 10.405704,39.856464 C9.873864,39.561264 9.293304,39.246384 8.664744,38.913024 C8.035704,38.579184 7.427304,38.267424 6.839304,37.977984" id="Fill-13" fill="#FFFFFF"></path>
                <path d="M15.380616,21.317928 C14.936856,21.493368 14.529576,21.814008 14.158536,22.279368 C13.911096,22.589688 13.731096,22.950648 13.618056,23.362248 C13.504776,23.773608 13.484136,24.203928 13.556136,24.652968 C13.628376,25.102728 13.802376,25.558248 14.078616,26.021208 C14.355096,26.483928 14.759496,26.927928 15.292056,27.352728 C15.696696,27.675288 16.115256,27.917928 16.547736,28.081128 C16.980216,28.243848 17.406216,28.321848 17.825976,28.314408 C18.245736,28.306968 18.647016,28.207848 19.030776,28.017288 C19.414536,27.827208 19.761816,27.536088 20.073816,27.144888 C20.143656,27.057288 20.217816,26.953848 20.296776,26.834568 C20.375256,26.715048 20.449176,26.597928 20.519256,26.482968 C20.588856,26.367288 20.647416,26.256648 20.693736,26.150088 C20.739576,26.043528 20.765496,25.959528 20.770776,25.897128 C20.700696,25.819608 20.606136,25.730328 20.487576,25.630008 C20.369016,25.530168 20.235576,25.420968 20.086776,25.302408 C19.540776,24.866808 19.129896,24.555768 18.854136,24.369048 C18.578616,24.182328 18.390696,24.054648 18.290856,23.985768 C18.358056,23.929368 18.441336,23.849448 18.539976,23.746008 C18.639096,23.643048 18.771576,23.486808 18.937896,23.277768 C19.131816,23.035128 19.270536,22.850568 19.354776,22.724568 C19.438296,22.598328 19.500696,22.496568 19.541016,22.418328 C19.584456,22.475208 19.662456,22.556568 19.775736,22.663368 C19.889016,22.770168 20.022216,22.890648 20.175576,23.023608 C20.328216,23.156328 20.492856,23.296008 20.668776,23.441688 C20.844936,23.587608 21.013896,23.725128 21.175656,23.854248 L21.509736,24.120408 C21.677976,24.254808 21.836136,24.378408 21.983976,24.490488 C22.131816,24.602808 22.241016,24.676248 22.312536,24.710808 C22.085736,25.258488 21.827976,25.789128 21.539256,26.303208 C21.250536,26.817528 20.928696,27.297288 20.573976,27.742248 C20.111256,28.322088 19.609416,28.796088 19.067736,29.163768 C18.526296,29.531928 17.967576,29.775528 17.392296,29.895768 C16.816296,30.016008 16.242216,30.010488 15.668616,29.878488 C15.095496,29.746728 14.549016,29.473608 14.029896,29.059608 C13.389576,28.549128 12.912696,27.995208 12.600216,27.398328 C12.287256,26.801448 12.119976,26.188248 12.098136,25.558968 C12.076296,24.929208 12.188856,24.293448 12.435576,23.651928 C12.682296,23.010408 13.042056,22.392888 13.515336,21.799608 C13.923816,21.286968 14.329896,20.885448 14.732856,20.594568 C15.135576,20.303688 15.580296,20.054088 16.065816,19.845528 C16.198296,20.039928 16.328616,20.229288 16.456536,20.413848 C16.585176,20.599128 16.723656,20.778408 16.871976,20.951688 L16.759176,21.093288 C16.283496,21.067128 15.824136,21.142248 15.380616,21.317928" id="Fill-15" fill="#FFFFFF"></path>
                <path d="M27.147648,13.44996 C27.099888,13.09428 27.039408,12.729 26.966688,12.35412 C26.893968,11.97948 26.816208,11.60508 26.733888,11.23212 C26.651568,10.85844 26.574528,10.50036 26.503008,10.15596 C26.589888,10.11396 26.677008,10.06836 26.764608,10.02012 C26.852208,9.97164 26.937408,9.91668 27.020928,9.85524 C27.103968,9.7938 27.181728,9.72828 27.253968,9.65916 C27.325968,9.59004 27.402048,9.51492 27.482208,9.43452 C27.507408,9.71604 27.548208,10.07988 27.603648,10.5258 C27.659808,10.97244 27.722688,11.45388 27.792528,11.96988 C27.862608,12.4866 27.937008,13.01268 28.016448,13.54908 C28.095408,14.085 28.172448,14.57772 28.246368,15.02676 C28.369248,15.1938 28.489728,15.36444 28.608048,15.5394 C28.726848,15.71508 28.849968,15.88908 28.977888,16.0626 C29.239008,16.41684 29.502768,16.76364 29.768688,17.10276 C30.035088,17.44236 30.333408,17.78508 30.663408,18.13068 C30.507408,18.22452 30.354768,18.32628 30.205248,18.43596 C30.056208,18.54612 29.909088,18.65484 29.762928,18.7626 C29.617248,18.86988 29.469888,18.97884 29.320608,19.08876 C29.171568,19.19892 29.029008,19.31436 28.893168,19.4358 C28.672128,19.10628 28.455408,18.76236 28.244688,18.40356 C28.033488,18.04476 27.805248,17.69868 27.559728,17.36532 C27.442128,17.20596 27.321168,17.04564 27.197568,16.88508 C27.073488,16.72476 26.949408,16.56708 26.824848,16.41276 C26.395728,16.19364 25.910448,15.9534 25.370208,15.693 C24.829968,15.4326 24.305568,15.17916 23.796768,14.93244 C23.288448,14.68596 22.825488,14.46492 22.407648,14.26884 C21.990048,14.07348 21.685728,13.93332 21.495168,13.84908 C21.665088,13.74516 21.829968,13.64196 21.990528,13.53996 C22.150848,13.43772 22.310688,13.32756 22.470768,13.2102 C22.630368,13.09236 22.780848,12.97332 22.922448,12.85284 C23.063808,12.73236 23.209488,12.60636 23.358768,12.4746 C23.665968,12.64452 24.009648,12.83052 24.389328,13.03308 C24.769008,13.2354 25.141968,13.4322 25.507248,13.62276 C25.873248,13.81404 26.208528,13.98492 26.512608,14.13564 C26.816448,14.28636 27.049968,14.39292 27.213408,14.45436 L27.234288,14.439 C27.224688,14.1354 27.195888,13.80612 27.147648,13.44996" id="Fill-17" fill="#FFFFFF"></path>
                <path d="M38.402808,8.452608 C38.160648,7.947168 37.881288,7.523808 37.565448,7.183008 C37.248648,6.841968 36.912888,6.584448 36.557208,6.410448 C36.201288,6.236688 35.829528,6.149328 35.441688,6.14812607 C35.054328,6.147648 34.673928,6.236928 34.300488,6.415248 C33.903768,6.605328 33.593448,6.871008 33.369528,7.212048 C33.146088,7.553808 33.003048,7.939968 32.941848,8.371008 C32.880408,8.801808 32.898408,9.264288 32.996568,9.757728 C33.094008,10.251408 33.262248,10.747008 33.500328,11.244768 C33.798408,11.867328 34.116168,12.360528 34.453128,12.724848 C34.789848,13.089168 35.133768,13.348128 35.484168,13.500288 C35.834328,13.653168 36.185208,13.717248 36.536808,13.691808 C36.887928,13.667328 37.227528,13.576848 37.554168,13.420128 C37.904088,13.252608 38.203128,13.018608 38.451288,12.717888 C38.699208,12.417648 38.869128,12.058608 38.961288,11.641728 C39.053448,11.224848 39.059448,10.748448 38.980008,10.213008 C38.900568,9.677568 38.708088,9.090768 38.402808,8.452608 M31.536408,12.055728 C31.261128,11.480448 31.108968,10.888608 31.080888,10.280208 C31.052568,9.672528 31.141608,9.084768 31.348248,8.517648 C31.554648,7.949808 31.881768,7.425408 32.329608,6.942768 C32.777928,6.460848 33.340248,6.057408 34.017288,5.733408 C34.638888,5.435568 35.259768,5.243568 35.878248,5.157648 C36.497208,5.071728 37.086888,5.105088 37.647528,5.257488 C38.207928,5.409888 38.728488,5.693568 39.209448,6.108768 C39.689928,6.523728 40.098168,7.081488 40.433688,7.781568 C40.712808,8.365008 40.862808,8.962608 40.883208,9.574128 C40.903608,10.186128 40.807608,10.774848 40.595688,11.340048 C40.383288,11.905488 40.055208,12.423408 39.611448,12.894288 C39.167448,13.364688 38.618328,13.756608 37.965528,14.069568 C37.350408,14.363568 36.736968,14.564208 36.123768,14.671488 C35.510328,14.778528 34.922568,14.758848 34.359768,14.612448 C33.797208,14.466048 33.273768,14.185968 32.788728,13.772688 C32.303928,13.358928 31.886808,12.787248 31.536408,12.055728" id="Fill-19" fill="#FFFFFF"></path>
                <path d="M48.632808,10.359 C48.094728,10.48188 47.579448,10.53948 47.086968,10.53252 C46.594248,10.52532 46.145208,10.42884 45.739848,10.2426 C45.334968,10.05636 44.986248,9.77796 44.693688,9.40668 C44.400888,9.03516 44.186808,8.55156 44.050488,7.95444 C43.973928,7.6182 43.907208,7.317 43.851048,7.05156 C43.794888,6.78564 43.740888,6.53916 43.689048,6.31212 C43.637448,6.08484 43.589448,5.86596 43.545768,5.65476 C43.501848,5.4438 43.454328,5.22444 43.402728,4.99764 C43.247208,4.31652 43.117128,3.76692 43.012728,3.34812 C42.908328,2.9298 42.823848,2.61732 42.759048,2.41068 C42.930888,2.38932 43.107048,2.3646 43.286328,2.33676 C43.465848,2.30916 43.639368,2.27604 43.807608,2.23788 C43.975848,2.19948 44.146968,2.15388 44.320248,2.10108 C44.494488,2.04828 44.663208,1.99428 44.827848,1.93908 C44.929368,2.77404 45.052248,3.54396 45.195768,4.25004 C45.338568,4.95588 45.493128,5.6706 45.658008,6.39348 C45.832728,7.1586 46.028088,7.76412 46.245288,8.21004 C46.461768,8.6562 46.706808,8.98284 46.979928,9.19044 C47.252808,9.39804 47.554248,9.5082 47.884728,9.5214 C48.214728,9.53436 48.585768,9.49404 48.997848,9.39972 C49.502568,9.28476 49.868808,9.06852 50.097288,8.75124 C50.325288,8.43372 50.465208,8.04804 50.516328,7.59396 C50.567688,7.13988 50.547768,6.6378 50.458248,6.08796 C50.367768,5.53788 50.255928,4.9686 50.121528,4.38012 C49.989048,3.80004 49.848648,3.2238 49.700568,2.6514 C49.552248,2.07972 49.395048,1.50708 49.229448,0.93468 C49.350648,0.9246 49.467768,0.91332 49.579848,0.90132 C49.691928,0.8886 49.794168,0.8718 49.886808,0.85092 C49.996008,0.82596 50.099688,0.79572 50.197848,0.75996 C50.296008,0.7242 50.397768,0.6858 50.503128,0.64404 C50.528328,0.83316 50.568168,1.08468 50.622648,1.3998 C50.676408,1.71444 50.741688,2.07804 50.818008,2.48964 C50.894328,2.90148 50.982168,3.35436 51.081528,3.849 C51.181368,4.34412 51.293688,4.86444 51.418008,5.41092 C51.752088,6.87396 51.676248,7.99476 51.190248,8.7738 C50.704488,9.5526 49.852008,10.08108 48.632808,10.359" id="Fill-21" fill="#FFFFFF"></path>
                <path d="M55.536552,2.658384 C55.530072,2.063424 55.515912,1.563504 55.494072,1.158144 C55.472232,0.753024 55.455672,0.394944 55.443912,0.084624 C55.685592,0.125184 55.879992,0.144624 56.026392,0.143184 C56.173032,0.141744 56.366952,0.117984 56.607912,0.072144 C57.559032,1.105584 58.499832,2.121984 59.428872,3.120864 C60.358152,4.119984 61.311432,5.135904 62.288472,6.168864 L62.276232,5.043504 L62.262792,3.788784 C62.258232,3.366384 62.251512,2.950224 62.242872,2.540784 C62.233992,2.131104 62.225592,1.753584 62.217912,1.408944 C62.209752,1.064064 62.197992,0.766464 62.182152,0.516384 C62.166552,0.266784 62.149992,0.098784 62.131752,0.012864 C62.373432,0.053424 62.567592,0.072624 62.714232,0.071184 C62.861112,0.069744 63.054552,0.045744 63.295752,0.000144 C63.261192,0.785184 63.234312,1.494864 63.215112,2.129184 C63.196152,2.763264 63.181032,3.360624 63.169992,3.921504 C63.158712,4.482144 63.153672,5.036304 63.155832,5.583984 C63.157032,6.131904 63.161352,6.715824 63.168312,7.336944 L63.184632,8.889024 C63.011832,8.873424 62.835432,8.866944 62.654232,8.869104 C62.464152,8.870784 62.296152,8.881344 62.149992,8.900064 C60.350952,6.849744 58.444152,4.787424 56.429592,2.713344 C56.423592,2.963664 56.419752,3.213744 56.418312,3.463584 C56.416392,3.713904 56.417352,3.968544 56.419992,4.227024 L56.436312,5.727504 C56.441592,6.244704 56.448792,6.684864 56.456952,7.047024 C56.464872,7.408944 56.474952,7.715184 56.486232,7.965024 C56.497272,8.215104 56.508552,8.420064 56.518872,8.579424 C56.528952,8.739024 56.539272,8.865984 56.548632,8.960784 C56.444952,8.944224 56.341512,8.937024 56.238072,8.937984 C56.134392,8.939424 56.035272,8.940624 55.940712,8.941584 C55.741752,8.943264 55.543752,8.953824 55.345752,8.973744 C55.362312,8.904624 55.381272,8.658624 55.402392,8.235504 C55.423752,7.813104 55.446312,7.297344 55.470072,6.689184 C55.493352,6.080784 55.511832,5.420544 55.526232,4.709184 C55.539912,3.997104 55.543032,3.313584 55.536552,2.658384" id="Fill-23" fill="#FFFFFF"></path>
                <path d="M74.256336,2.73924 C73.898736,2.42388 73.428336,2.20596 72.845616,2.08596 C72.456816,2.00604 72.053376,2.00868 71.635296,2.09436 C71.216976,2.18004 70.823856,2.35692 70.456416,2.62452 C70.088736,2.8926 69.760896,3.25428 69.473856,3.71028 C69.186096,4.16628 68.973696,4.72788 68.836416,5.39484 C68.732016,5.90196 68.705376,6.38508 68.756256,6.84468 C68.806656,7.30404 68.930736,7.719 69.127536,8.0898 C69.323616,8.46036 69.594336,8.7738 69.937776,9.02892 C70.281216,9.28452 70.698096,9.46308 71.188176,9.56364 C71.298096,9.5862 71.423856,9.60564 71.565936,9.62172 C71.708256,9.6378 71.846016,9.651 71.980656,9.66084 C72.114576,9.67068 72.240336,9.6726 72.356016,9.6654 C72.471696,9.65844 72.558576,9.64308 72.616416,9.6198 C72.653856,9.52188 72.690576,9.39708 72.726096,9.24612 C72.761376,9.09468 72.798336,8.92644 72.836736,8.74044 C72.977376,8.05596 73.068816,7.54932 73.110336,7.2186 C73.151376,6.88812 73.180656,6.66324 73.196496,6.54324 C73.277136,6.57732 73.386096,6.615 73.523136,6.65652 C73.659936,6.69756 73.859136,6.74532 74.121216,6.79932 C74.425056,6.86196 74.652096,6.90204 74.802816,6.91956 C74.953056,6.93756 75.072336,6.94668 75.160416,6.94692 C75.129456,7.01124 75.092256,7.11804 75.048576,7.26732 C75.004176,7.4166 74.957616,7.58988 74.908176,7.78644 C74.859216,7.98372 74.809296,8.19348 74.759136,8.41644 C74.708496,8.63916 74.662656,8.85228 74.621136,9.0546 L74.534976,9.47316 C74.491536,9.68412 74.453136,9.88116 74.420256,10.0638 C74.387136,10.2462 74.371056,10.37676 74.372256,10.45644 C73.781856,10.50276 73.191936,10.51332 72.602496,10.4886 C72.013296,10.46436 71.439936,10.39452 70.882176,10.28004 C70.155936,10.13076 69.505776,9.89772 68.932416,9.58188 C68.359056,9.26556 67.888656,8.8782 67.520976,8.41956 C67.152576,7.96092 66.897936,7.44636 66.755376,6.8754 C66.612816,6.30444 66.608976,5.69412 66.742656,5.04372 C66.907776,4.24116 67.185456,3.56532 67.575936,3.01596 C67.966176,2.46684 68.437056,2.03964 68.988576,1.7346 C69.539856,1.43004 70.157376,1.24236 70.841136,1.1718 C71.524656,1.10124 72.238176,1.14204 72.981936,1.29516 C73.623456,1.42716 74.165616,1.60692 74.607456,1.8342 C75.049296,2.06172 75.473136,2.34492 75.879216,2.68404 C75.766176,2.88972 75.656496,3.09132 75.549696,3.28956 C75.442896,3.48756 75.345456,3.69204 75.258576,3.90324 L75.080976,3.86652 C74.888976,3.43092 74.613936,3.05508 74.256336,2.73924" id="Fill-25" fill="#FFFFFF"></path>
                <path d="M87.60984,11.427768 C87.16176,11.800488 86.70648,12.180648 86.24424,12.569448 C85.78152,12.958008 85.3284,13.342728 84.88584,13.722888 C84.44328,14.103048 84.05352,14.444568 83.71632,14.746968 C83.55432,14.631768 83.36856,14.512968 83.16048,14.391288 C83.06376,14.334648 82.9668,14.277768 82.87008,14.221368 C82.77336,14.164248 82.67208,14.115048 82.56672,14.073528 C82.66368,13.720488 82.78656,13.263048 82.93608,12.700728 C83.08536,12.138408 83.24088,11.540088 83.40312,10.905288 C83.56488,10.270968 83.7264,9.628008 83.88744,8.977608 C84.04848,8.327688 84.19368,7.730328 84.32232,7.185768 C84.45144,6.641928 84.56208,6.179208 84.65496,5.799288 C84.74784,5.418648 84.80112,5.182728 84.81504,5.090808 C84.97008,5.201688 85.12248,5.308488 85.27224,5.410968 C85.422,5.513688 85.57104,5.608488 85.72032,5.695848 C85.86864,5.782728 86.02272,5.865528 86.18232,5.944008 C86.34072,6.022008 86.49936,6.097608 86.6568,6.169848 C86.48952,6.711288 86.32176,7.270008 86.15424,7.846728 C85.98672,8.423208 85.82496,8.993208 85.66968,9.556968 C85.5144,10.120728 85.3644,10.667208 85.21896,11.196888 C85.07352,11.726328 84.9396,12.215448 84.8172,12.663048 L84.83952,12.676008 C85.27776,12.303288 85.75224,11.898888 86.26248,11.463048 C86.77272,11.027448 87.27024,10.599288 87.75648,10.179528 C88.24224,9.759528 88.68912,9.371688 89.0976,9.016008 C89.5056,8.660568 89.82672,8.376408 90.06168,8.164008 C90.14928,8.235288 90.23496,8.302968 90.31728,8.366328 C90.40056,8.429928 90.49008,8.489928 90.58656,8.546568 C90.68376,8.603208 90.78,8.652408 90.87576,8.693208 C90.97152,8.734488 91.07184,8.775768 91.17768,8.818008 C91.11144,8.998728 91.03872,9.251448 90.95928,9.574488 C90.8796,9.897528 90.79584,10.258248 90.708,10.656408 C90.61968,11.054568 90.52776,11.475528 90.43272,11.919528 C90.3372,12.363528 90.24456,12.803688 90.15384,13.240488 C90.06288,13.676808 89.9736,14.089608 89.886,14.477928 C89.79816,14.866248 89.71608,15.202728 89.63928,15.487848 L89.6616,15.500808 C90.08496,15.119208 90.54624,14.694648 91.04496,14.227368 C91.54368,13.759848 92.0256,13.307688 92.49168,12.870888 C92.95776,12.434088 93.38208,12.032808 93.76584,11.668248 C94.1496,11.303208 94.43304,11.024568 94.61568,10.831608 C94.77984,10.977768 94.92504,11.087928 95.05176,11.162088 C95.1336,11.210088 95.22072,11.253528 95.31288,11.292408 C95.4048,11.331528 95.49984,11.369688 95.59776,11.406648 C95.46288,11.517768 95.24592,11.700888 94.94712,11.955528 C94.6476,12.209688 94.29648,12.511128 93.89256,12.859368 C93.48888,13.207608 93.05112,13.588248 92.57904,14.001288 C92.10672,14.414328 91.63296,14.831688 91.15656,15.252168 C90.68016,15.672648 90.216,16.085688 89.76456,16.490568 C89.31192,16.895208 88.91112,17.260488 88.56072,17.584488 C88.39848,17.469288 88.2132,17.350968 88.00488,17.229048 C87.90792,17.172408 87.81144,17.115528 87.71448,17.058888 C87.61776,17.002248 87.51648,16.952808 87.41112,16.911288 C87.70488,15.863688 87.96384,14.803608 88.18752,13.730568 C88.41144,12.657288 88.6284,11.557608 88.83816,10.431048 L88.81608,10.417848 C88.45968,10.719048 88.05744,11.055528 87.60984,11.427768" id="Fill-27" fill="#FFFFFF"></path>
                <path d="M97.391952,15.322368 C97.753152,14.898768 98.109552,14.468208 98.461392,14.030208 C98.742672,14.297808 99.017712,14.565648 99.286992,14.833488 C99.556272,15.101568 99.834432,15.365808 100.121712,15.626928 C100.593792,16.056288 101.017872,16.433088 101.393712,16.756848 C101.769312,17.080848 102.026592,17.294448 102.166032,17.397648 C102.047472,17.476848 101.912832,17.598768 101.762352,17.764848 C101.669232,17.867328 101.599872,17.949648 101.554512,18.013008 C101.508432,18.076368 101.459952,18.148608 101.409072,18.230448 C101.235552,18.049728 101.044512,17.852688 100.835952,17.639808 C100.627152,17.427168 100.425072,17.219568 100.229472,17.018448 C100.033152,16.817088 99.855552,16.637808 99.695472,16.480608 C99.535152,16.323648 99.420192,16.213008 99.349872,16.149168 C99.005232,16.476768 98.674992,16.811568 98.358192,17.153568 C98.041872,17.495328 97.724112,17.841648 97.405392,18.192768 C97.825632,18.563328 98.209392,18.894768 98.556432,19.186368 C98.902992,19.477968 99.266832,19.779648 99.647712,20.091168 C99.529632,20.182128 99.441792,20.253648 99.383472,20.305488 C99.324672,20.356848 99.266352,20.414688 99.208512,20.478288 C99.161952,20.529648 99.118752,20.586528 99.079152,20.649408 C99.039312,20.712288 98.979312,20.800848 98.899632,20.914368 C98.224272,20.195808 97.525872,19.508448 96.804672,18.853008 C96.618912,19.057488 96.431952,19.260288 96.243312,19.461648 C96.054192,19.662528 95.866992,19.865568 95.681472,20.069808 C95.304432,20.484528 94.951392,20.891808 94.622592,21.292368 C94.986672,21.623088 95.358672,21.944208 95.740032,22.255728 C96.121152,22.567248 96.516912,22.868928 96.928032,23.160528 C96.850992,23.218848 96.783792,23.274528 96.724992,23.325888 C96.666672,23.377488 96.590832,23.454768 96.498192,23.556768 C96.405312,23.658528 96.336192,23.741328 96.289872,23.804448 C96.244032,23.867568 96.209952,23.924208 96.188352,23.974368 C96.021792,23.810928 95.814192,23.613648 95.564832,23.381088 C95.315712,23.148768 94.970832,22.832688 94.530432,22.432608 C94.141152,22.078368 93.825072,21.791328 93.582672,21.571008 C93.346752,21.356688 93.156672,21.183888 93.013392,21.053328 C92.869632,20.922768 92.759712,20.825568 92.683392,20.762208 C92.607072,20.698368 92.540112,20.646768 92.483472,20.606928 C92.868432,20.234448 93.254832,19.848048 93.641472,19.447728 C94.028832,19.048128 94.462512,18.583248 94.944432,18.053568 L96.127632,16.751568 C96.609072,16.221888 97.030512,15.745728 97.391952,15.322368" id="Fill-29" fill="#FFFFFF"></path>
                <path d="M101.292888,25.791432 L100.676808,26.263752 C100.478088,26.415912 100.298328,26.556552 100.137048,26.686392 C99.975288,26.815752 99.870168,26.898552 99.822408,26.935272 C99.894168,27.043032 99.981528,27.171672 100.085448,27.320472 C100.188648,27.469752 100.321848,27.650232 100.484568,27.862152 C101.077368,28.635432 101.810328,29.046072 102.684168,29.093832 C103.557528,29.141112 104.527848,28.755432 105.595368,27.936552 C106.019208,27.611112 106.356408,27.263832 106.604808,26.893512 C106.853448,26.523432 107.017608,26.145192 107.096328,25.758792 C107.174568,25.372152 107.166888,24.986952 107.073288,24.602472 C106.979208,24.217752 106.796088,23.847432 106.523208,23.491752 C106.334088,23.245512 106.175688,23.049432 106.047288,22.903272 C105.918888,22.757112 105.787368,22.610472 105.652968,22.463592 C105.604968,22.500312 105.497688,22.579992 105.330888,22.702632 C105.164088,22.825032 104.977848,22.964952 104.772648,23.122632 L104.156808,23.595192 L103.643448,23.988312 L101.816328,25.389912 L101.292888,25.791432 Z M102.273048,22.626792 C102.840888,22.191192 103.340088,21.796872 103.771368,21.445032 C104.202168,21.092952 104.629608,20.732472 105.053208,20.363832 C105.128568,20.490792 105.214248,20.626392 105.308568,20.771112 C105.403368,20.916072 105.516408,21.073992 105.647688,21.245112 C105.820968,21.470952 106.023288,21.717192 106.256088,21.985272 C106.487928,22.252392 106.777368,22.611912 107.123928,23.063592 C107.575368,23.652312 107.933208,24.228552 108.196728,24.792072 C108.460728,25.356312 108.599928,25.909752 108.614568,26.452632 C108.628728,26.995752 108.495768,27.527112 108.214968,28.046472 C107.934168,28.566552 107.468808,29.075832 106.818648,29.574552 C106.250568,30.009912 105.665208,30.309432 105.062568,30.472872 C104.459448,30.636312 103.870488,30.679992 103.296648,30.604392 C102.722088,30.528552 102.185688,30.342792 101.686728,30.046392 C101.187288,29.749272 100.751688,29.358312 100.378728,28.872552 C99.985128,28.359192 99.652728,27.918552 99.381288,27.550632 C99.110088,27.182472 98.872008,26.865192 98.667528,26.598552 C98.536488,26.427192 98.417928,26.273352 98.313288,26.136552 C98.207928,25.999272 98.104488,25.878072 98.001288,25.772232 C98.446488,25.474392 98.895288,25.162872 99.347448,24.838152 C99.798888,24.513192 100.308648,24.133272 100.877208,23.697432 L102.273048,22.626792 Z" id="Fill-31" fill="#FFFFFF"></path>
                <path d="M107.618448,35.375736 L106.915728,35.705256 C106.689408,35.811576 106.483248,35.910696 106.297968,36.002376 C106.112208,36.094056 105.992208,36.153096 105.937248,36.178536 C105.984288,36.299256 106.042608,36.443496 106.111968,36.611256 C106.181088,36.779016 106.272288,36.983496 106.385568,37.225896 C106.799568,38.108136 107.427408,38.666136 108.270528,38.899416 C109.113408,39.132696 110.143728,38.963736 111.362208,38.392776 C111.846048,38.165736 112.249248,37.898136 112.571808,37.590216 C112.893408,37.281336 113.134368,36.947256 113.293968,36.586536 C113.453808,36.226056 113.528688,35.848056 113.519568,35.452056 C113.510208,35.056536 113.410128,34.655496 113.220048,34.249896 C113.088288,33.968616 112.975008,33.742776 112.881168,33.572856 C112.787088,33.402456 112.689888,33.231096 112.590288,33.059016 C112.535328,33.084696 112.413648,33.139416 112.224288,33.223176 C112.034928,33.307176 111.823488,33.404376 111.589008,33.514056 L110.886288,33.843576 L110.300688,34.118136 L108.216048,35.095896 L107.618448,35.375736 Z M109.253568,32.494536 C109.902048,32.190696 110.473968,31.913016 110.970528,31.661256 C111.466368,31.409256 111.961008,31.148616 112.453968,30.879576 C112.500528,31.019736 112.554768,31.170696 112.615968,31.331976 C112.677888,31.493736 112.754208,31.672296 112.845648,31.867416 C112.966608,32.125176 113.111808,32.409576 113.281728,32.720616 C113.451168,33.031416 113.657088,33.444696 113.898768,33.960216 C114.213408,34.631496 114.439488,35.270856 114.576528,35.878296 C114.713568,36.485496 114.731328,37.056216 114.629088,37.589736 C114.526848,38.123496 114.283008,38.614056 113.897088,39.061176 C113.511648,39.508776 112.947888,39.906456 112.206288,40.254216 C111.558288,40.558296 110.922048,40.725336 110.298528,40.756296 C109.674528,40.786776 109.090128,40.703256 108.545328,40.506456 C108.000768,40.309656 107.515968,40.012776 107.092368,39.616296 C106.668048,39.219816 106.326288,38.744376 106.066128,38.189976 C105.791568,37.604376 105.561168,37.102536 105.374928,36.685416 C105.188688,36.267576 105.024048,35.906616 104.881248,35.601816 C104.789808,35.406936 104.707248,35.231016 104.633808,35.074776 C104.560848,34.918776 104.485248,34.778136 104.407248,34.652616 C104.905968,34.456776 105.411168,34.248936 105.922128,34.028136 C106.433088,33.807816 107.012688,33.545496 107.660688,33.241416 L109.253568,32.494536 Z" id="Fill-33" fill="#FFFFFF"></path>
                <path d="M115.630536,43.003464 C116.160696,42.834264 116.690856,42.657144 117.220776,42.470184 C117.244296,42.616104 117.273576,42.773784 117.308136,42.942984 C117.342936,43.112664 117.389736,43.301064 117.448776,43.508424 C117.507576,43.715784 117.567096,43.900344 117.626616,44.063064 C117.685896,44.225064 117.744216,44.374584 117.801336,44.510904 C117.252456,44.630904 116.708136,44.758824 116.168616,44.894904 C115.628856,45.030024 115.014936,45.196104 114.326136,45.391944 L112.633896,45.873144 C111.945576,46.069224 111.336216,46.251384 110.805816,46.420344 C110.275656,46.588824 109.757736,46.763064 109.253016,46.942584 C109.229496,46.796904 109.194456,46.641144 109.146936,46.475304 C109.099416,46.308984 109.046616,46.122744 108.987336,45.915384 C108.928536,45.708024 108.875496,45.521304 108.828216,45.355464 C108.781416,45.189384 108.729336,45.038424 108.672456,44.901864 C109.196136,44.789064 109.727736,44.664504 110.267736,44.528904 C110.807256,44.393064 111.421656,44.227944 112.110216,44.031864 L113.802456,43.550424 C114.491016,43.354584 115.100376,43.172184 115.630536,43.003464" id="Fill-35" fill="#FFFFFF"></path>
                <path d="M116.38968,49.448064 C116.98032,49.378224 117.47616,49.311264 117.87696,49.246944 C118.27752,49.182624 118.63128,49.127424 118.93896,49.083024 C118.92384,49.327584 118.92528,49.522944 118.9428,49.668624 C118.95984,49.814064 119.00376,50.004144 119.0748,50.239104 C118.14792,51.294384 117.2376,52.337424 116.34288,53.367744 C115.44792,54.397584 114.5388,55.453344 113.61504,56.534544 L114.73272,56.403024 L115.97928,56.256384 C116.3988,56.207184 116.81184,56.156064 117.2184,56.104224 C117.62472,56.052144 117.9984,56.003424 118.34064,55.959024 C118.68288,55.914384 118.97736,55.871184 119.22432,55.829184 C119.47128,55.786944 119.6364,55.752624 119.72016,55.725024 C119.70528,55.970064 119.70696,56.165184 119.72376,56.310864 C119.74104,56.456544 119.78496,56.646864 119.85624,56.881824 C119.07192,56.930304 118.3632,56.979024 117.7308,57.027264 C117.09816,57.075744 116.50248,57.123984 115.94376,57.172464 C115.3848,57.220704 114.83352,57.274704 114.28896,57.334464 C113.7444,57.393984 113.16432,57.460464 112.54728,57.533184 L111.00552,57.714384 C111.00288,57.541104 110.99064,57.364224 110.96928,57.184464 C110.94696,56.995824 110.91888,56.829984 110.8848,56.686464 C112.7328,54.680064 114.58104,52.565424 116.42976,50.342304 C116.1804,50.362944 115.93104,50.385264 115.6824,50.410464 C115.43328,50.434944 115.18056,50.463024 114.92376,50.493024 L113.43312,50.668464 C112.91928,50.728944 112.48272,50.782224 112.12368,50.829024 C111.7644,50.875584 111.46104,50.917824 111.2136,50.955744 C110.96568,50.992944 110.7636,51.025584 110.60616,51.052944 C110.44848,51.080064 110.32368,51.103584 110.23032,51.123264 C110.23536,51.018384 110.23152,50.914464 110.21976,50.811984 C110.20752,50.709264 110.196,50.610624 110.18496,50.516544 C110.16192,50.319504 110.13024,50.123184 110.08944,49.928304 C110.16,49.937424 110.40672,49.930224 110.82936,49.906464 C111.252,49.882944 111.76728,49.850304 112.37472,49.809504 C112.98216,49.768464 113.64024,49.716864 114.34944,49.655424 C115.05864,49.593504 115.73856,49.524384 116.38968,49.448064" id="Fill-37" fill="#FFFFFF"></path>
                <path d="M118.296336,68.0694 C118.572096,67.68012 118.738656,67.18932 118.796016,66.597 C118.833936,66.20196 118.788576,65.80116 118.658976,65.39436 C118.528896,64.98732 118.311456,64.61532 118.006176,64.2786 C117.700896,63.9414 117.306576,63.65436 116.822496,63.417 C116.338416,63.1794 115.757136,63.02796 115.079616,62.96268 C114.564336,62.913 114.080976,62.93748 113.629536,63.03684 C113.177856,63.13596 112.778496,63.30348 112.430736,63.5382 C112.083216,63.77316 111.800496,64.07508 111.582576,64.44396 C111.365136,64.81284 111.232416,65.24628 111.184176,65.74428 C111.173376,65.85564 111.167616,65.98308 111.167136,66.12588 C111.165936,66.26868 111.167856,66.4074 111.172176,66.54228 C111.176256,66.67692 111.188256,66.80148 111.207696,66.91596 C111.226896,67.03044 111.250896,67.11516 111.280416,67.17012 C111.381696,67.197 111.509376,67.22004 111.663456,67.23972 C111.817536,67.25868 111.989136,67.2774 112.178016,67.29564 C112.873296,67.36308 113.387376,67.3998 113.720736,67.4058 C114.053136,67.41228 114.280176,67.41636 114.401376,67.41972 C114.375936,67.50396 114.350256,67.61628 114.323376,67.75644 C114.296736,67.89708 114.270816,68.10036 114.245136,68.36628 C114.214896,68.6754 114.199296,68.90532 114.197856,69.05724 C114.195936,69.2082 114.199536,69.32796 114.208656,69.4158 C114.141456,69.3918 114.031296,69.36612 113.878176,69.33804 C113.724816,69.31044 113.547936,69.2826 113.347056,69.25452 C113.145936,69.22596 112.931856,69.19908 112.704816,69.17268 C112.478016,69.14628 112.261296,69.12324 112.055376,69.10356 L111.630576,69.06252 C111.415776,69.04188 111.215856,69.02436 111.031056,69.01092 C110.845776,68.99724 110.713776,68.99508 110.635056,69.00492 C110.526816,68.42292 110.453136,67.83732 110.415216,67.24908 C110.376816,66.66036 110.384736,66.08292 110.439696,65.51604 C110.510976,64.7778 110.673456,64.107 110.926656,63.5034 C111.179856,62.89956 111.514896,62.39052 111.932016,61.97604 C112.348896,61.56132 112.833456,61.25292 113.386176,61.05084 C113.938656,60.84852 114.545136,60.77964 115.206096,60.84348 C116.021376,60.92196 116.723376,61.12644 117.311136,61.4562 C117.898416,61.78572 118.373136,62.2086 118.734816,62.72436 C119.096496,63.24036 119.348976,63.83436 119.491536,64.50636 C119.634816,65.17884 119.669856,65.89308 119.596656,66.64812 C119.533776,67.30068 119.412336,67.85844 119.233296,68.32212 C119.054016,68.7858 118.818096,69.23748 118.524336,69.67692 C118.307616,69.58668 118.094976,69.49884 117.886656,69.41388 C117.678576,69.32892 117.464496,69.2538 117.245616,69.18948 L117.262896,69.009 C117.675936,68.77188 118.020336,68.45844 118.296336,68.0694" id="Fill-39" fill="#FFFFFF"></path>
            </g>
        </g>
    </g>
</svg>